M48
; DRILL file KiCad 10.0.3 date 2026-06-10T09:50:28
; FORMAT={-:-/ absolute / metric / decimal}
; #@! TF.CreationDate,2026-06-10T09:50:28-07:00
; #@! TF.GenerationSoftware,Kicad,Pcbnew,10.0.3
; #@! TF.FileFunction,Plated,1,2,PTH
FMAT,2
METRIC
; #@! TA.AperFunction,Plated,PTH,ViaDrill
T1C0.300
; #@! TA.AperFunction,Plated,PTH,ComponentDrill
T2C0.300
; #@! TA.AperFunction,Plated,PTH,ComponentDrill
T3C0.600
; #@! TA.AperFunction,Plated,PTH,ComponentDrill
T4C3.050
%
G90
G05
T1
X45.098Y-102.777
X48.245Y-117.499
X53.015Y-116.279
X90.323Y-137.344
X91.426Y-133.491
X95.2Y-109.113
X97.261Y-109.947
X101.151Y-137.507
X110.682Y-136.0
X118.748Y-137.854
X122.79Y-137.656
X124.7Y-138.363
X133.383Y-137.735
X140.911Y-137.317
X143.598Y-107.777
X152.517Y-145.875
X156.834Y-142.62
X159.481Y-133.049
X159.893Y-145.058
X160.333Y-136.924
X163.382Y-141.69
X163.581Y-129.899
X166.513Y-145.88
X166.598Y-127.027
X167.47Y-124.839
X169.644Y-145.275
X172.236Y-112.648
X177.2Y-130.5
X177.347Y-119.226
X177.68Y-134.513
X178.226Y-142.505
X179.948Y-138.816
X180.488Y-139.847
X180.552Y-143.976
X181.315Y-139.03
X181.958Y-142.648
X185.082Y-131.642
X185.8Y-133.071
X186.141Y-84.134
X186.481Y-131.953
X186.925Y-125.119
X187.844Y-145.537
X188.349Y-108.513
X188.863Y-131.642
X189.061Y-118.844
X189.738Y-146.218
X190.123Y-127.747
X190.675Y-136.945
X191.186Y-128.071
X191.45Y-117.899
X191.575Y-133.812
X191.813Y-63.209
X192.424Y-127.559
X192.653Y-117.434
X192.827Y-128.665
X193.042Y-125.429
X193.092Y-131.371
X194.551Y-128.307
X194.853Y-133.765
X195.392Y-145.213
X195.411Y-149.177
X198.159Y-145.535
X198.895Y-127.949
X199.714Y-145.535
X200.359Y-139.851
X200.744Y-123.365
X222.275Y-30.834
X222.313Y-45.97
X234.215Y-112.931
X246.119Y-112.361
X261.078Y-112.932
X293.913Y-118.789
T2
X192.14Y-136.6
X192.14Y-138.0
X192.84Y-135.9
X192.84Y-137.3
X192.84Y-138.7
X193.54Y-136.6
X193.54Y-138.0
X194.24Y-135.9
X194.24Y-137.3
X194.24Y-138.7
X194.94Y-136.6
X194.94Y-138.0
T4
X15.985Y-99.805
X18.366Y-23.605
X20.748Y-80.755
X22.335Y-97.265
X23.129Y-61.705
X24.716Y-21.065
X27.098Y-78.215
X27.891Y-42.655
X29.479Y-59.165
X34.241Y-40.115
X35.035Y-99.805
X41.385Y-97.265
X42.179Y-23.605
X44.56Y-80.755
X48.529Y-21.065
X49.323Y-61.705
X50.91Y-78.215
X54.085Y-99.805
X55.673Y-59.165
X58.848Y-42.655
X60.435Y-97.265
X63.61Y-80.755
X65.198Y-40.115
X65.991Y-23.605
X68.372Y-61.705
X69.96Y-78.215
X72.341Y-21.065
X73.135Y-99.805
X73.135Y-123.617
X74.722Y-59.165
X77.898Y-42.655
X79.485Y-97.265
X79.485Y-121.077
X82.66Y-80.755
X84.248Y-40.115
X87.423Y-61.705
X89.01Y-78.215
X92.185Y-99.805
X92.185Y-123.617
X93.773Y-59.165
X96.947Y-42.655
X98.535Y-97.265
X98.535Y-121.077
X101.71Y-80.755
X103.297Y-40.115
X106.473Y-61.705
X108.06Y-78.215
X111.235Y-99.805
X111.235Y-123.617
X112.823Y-59.165
X115.998Y-42.655
X117.585Y-97.265
X117.585Y-121.077
X120.76Y-80.755
X122.348Y-40.115
X125.523Y-61.705
X127.11Y-78.215
X130.285Y-99.805
X131.873Y-59.165
X135.048Y-42.655
X136.635Y-97.265
X137.429Y-23.605
X139.81Y-80.755
X139.81Y-123.617
X141.398Y-40.115
X143.779Y-21.065
X144.573Y-61.705
X146.16Y-78.215
X146.16Y-121.077
X149.335Y-99.805
X150.923Y-59.165
X154.098Y-42.655
X155.685Y-97.265
X158.86Y-80.755
X158.86Y-123.617
X160.448Y-40.115
X163.622Y-61.705
X165.21Y-78.215
X165.21Y-121.077
X168.385Y-99.805
X169.972Y-59.165
X173.148Y-42.655
X174.735Y-97.265
X177.91Y-80.755
X177.91Y-123.617
X179.498Y-40.115
X182.673Y-61.705
X184.26Y-78.215
X184.26Y-121.077
X187.435Y-99.805
X189.023Y-59.165
X192.198Y-42.655
X193.785Y-97.265
X196.96Y-80.755
X196.96Y-123.617
X198.548Y-40.115
X201.723Y-61.705
X203.31Y-78.215
X203.31Y-121.077
X206.485Y-99.805
X208.073Y-59.165
X208.866Y-23.605
X211.247Y-42.655
X212.835Y-97.265
X215.216Y-21.065
X216.01Y-80.755
X217.597Y-40.115
X220.773Y-61.705
X222.36Y-78.215
X225.535Y-99.805
X225.535Y-123.617
X227.123Y-59.165
X230.298Y-42.655
X231.885Y-97.265
X231.885Y-121.077
X232.679Y-23.605
X235.06Y-80.755
X236.648Y-40.115
X239.029Y-21.065
X239.823Y-61.705
X241.41Y-78.215
X244.585Y-99.805
X244.585Y-123.617
X246.173Y-59.165
X250.935Y-97.265
X250.935Y-121.077
X254.11Y-80.755
X256.491Y-23.605
X256.491Y-42.655
X260.46Y-78.215
X262.841Y-21.065
X262.841Y-40.115
X263.635Y-123.617
X269.985Y-121.077
X270.779Y-61.705
X273.16Y-99.805
X277.129Y-59.165
X277.923Y-23.605
X277.923Y-80.755
X279.51Y-97.265
X282.685Y-123.617
X284.273Y-21.065
X284.273Y-78.215
X289.035Y-121.077
X296.972Y-23.605
X296.972Y-42.655
X296.972Y-61.705
X296.972Y-80.755
X296.972Y-99.805
X303.322Y-21.065
X303.322Y-40.115
X303.322Y-59.165
X303.322Y-78.215
X303.322Y-97.265
X316.023Y-23.605
X316.023Y-61.705
X316.023Y-80.755
X316.023Y-99.805
X316.023Y-123.617
X322.373Y-21.065
X322.373Y-59.165
X322.373Y-78.215
X322.373Y-97.265
X322.373Y-121.077
T3
X164.22Y-143.98G85X164.22Y-145.08
G05
X164.22Y-148.41G85X164.22Y-149.01
G05
X172.86Y-143.98G85X172.86Y-145.08
G05
X172.86Y-148.41G85X172.86Y-149.01
G05
M30
