%TF.GenerationSoftware,KiCad,Pcbnew,10.0.3*%
%TF.CreationDate,2026-06-10T12:37:52-07:00*%
%TF.ProjectId,oso75,6f736f37-352e-46b6-9963-61645f706362,rev?*%
%TF.SameCoordinates,Original*%
%TF.FileFunction,Soldermask,Bot*%
%TF.FilePolarity,Negative*%
%FSLAX46Y46*%
G04 Gerber Fmt 4.6, Leading zero omitted, Abs format (unit mm)*
G04 Created by KiCad (PCBNEW 10.0.3) date 2026-06-10 12:37:52*
%MOMM*%
%LPD*%
G01*
G04 APERTURE LIST*
G04 Aperture macros list*
%AMRoundRect*
0 Rectangle with rounded corners*
0 $1 Rounding radius*
0 $2 $3 $4 $5 $6 $7 $8 $9 X,Y pos of 4 corners*
0 Add a 4 corners polygon primitive as box body*
4,1,4,$2,$3,$4,$5,$6,$7,$8,$9,$2,$3,0*
0 Add four circle primitives for the rounded corners*
1,1,$1+$1,$2,$3*
1,1,$1+$1,$4,$5*
1,1,$1+$1,$6,$7*
1,1,$1+$1,$8,$9*
0 Add four rect primitives between the rounded corners*
20,1,$1+$1,$2,$3,$4,$5,0*
20,1,$1+$1,$4,$5,$6,$7,0*
20,1,$1+$1,$6,$7,$8,$9,0*
20,1,$1+$1,$8,$9,$2,$3,0*%
G04 Aperture macros list end*
%ADD10RoundRect,0.250000X1.025000X1.000000X-1.025000X1.000000X-1.025000X-1.000000X1.025000X-1.000000X0*%
%ADD11C,1.850000*%
%ADD12C,4.100000*%
%ADD13C,3.700000*%
%ADD14C,0.750000*%
%ADD15O,1.100000X2.200000*%
%ADD16O,1.100000X1.700000*%
%ADD17C,3.148000*%
%ADD18C,4.087800*%
G04 APERTURE END LIST*
D10*
%TO.C,SW12*%
X25610000Y-97265000D03*
D11*
X23605000Y-94725000D03*
D12*
X18525000Y-94725000D03*
D11*
X13445000Y-94725000D03*
D10*
X12683000Y-99805000D03*
D13*
X22335000Y-97265000D03*
X15985000Y-99805000D03*
%TD*%
D10*
%TO.C,SW68*%
X147054000Y-21065000D03*
D11*
X145049000Y-18525000D03*
D12*
X139969000Y-18525000D03*
D11*
X134889000Y-18525000D03*
D10*
X134127000Y-23605000D03*
D13*
X143779000Y-21065000D03*
X137429000Y-23605000D03*
%TD*%
D10*
%TO.C,SW74*%
X325648000Y-97265000D03*
D11*
X323643000Y-94725000D03*
D12*
X318563000Y-94725000D03*
D11*
X313483000Y-94725000D03*
D10*
X312721000Y-99805000D03*
D13*
X322373000Y-97265000D03*
X316023000Y-99805000D03*
%TD*%
D10*
%TO.C,SW22*%
X216110000Y-97265000D03*
D11*
X214105000Y-94725000D03*
D12*
X209025000Y-94725000D03*
D11*
X203945000Y-94725000D03*
D10*
X203183000Y-99805000D03*
D13*
X212835000Y-97265000D03*
X206485000Y-99805000D03*
%TD*%
D10*
%TO.C,SW37*%
X244685000Y-78215000D03*
D11*
X242680000Y-75675000D03*
D12*
X237600000Y-75675000D03*
D11*
X232520000Y-75675000D03*
D10*
X231758000Y-80755000D03*
D13*
X241410000Y-78215000D03*
X235060000Y-80755000D03*
%TD*%
D10*
%TO.C,SW60*%
X182773000Y-40115000D03*
D11*
X180768000Y-37575000D03*
D12*
X175688000Y-37575000D03*
D11*
X170608000Y-37575000D03*
D10*
X169846000Y-42655000D03*
D13*
X179498000Y-40115000D03*
X173148000Y-42655000D03*
%TD*%
D10*
%TO.C,SW38*%
X263735000Y-78215000D03*
D11*
X261730000Y-75675000D03*
D12*
X256650000Y-75675000D03*
D11*
X251570000Y-75675000D03*
D10*
X250808000Y-80755000D03*
D13*
X260460000Y-78215000D03*
X254110000Y-80755000D03*
%TD*%
D10*
%TO.C,SW53*%
X37516000Y-40115000D03*
D11*
X35511000Y-37575000D03*
D12*
X30431000Y-37575000D03*
D11*
X25351000Y-37575000D03*
D10*
X24589000Y-42655000D03*
D13*
X34241000Y-40115000D03*
X27891000Y-42655000D03*
%TD*%
D10*
%TO.C,SW17*%
X120860000Y-97265000D03*
D11*
X118855000Y-94725000D03*
D12*
X113775000Y-94725000D03*
D11*
X108695000Y-94725000D03*
D10*
X107933000Y-99805000D03*
D13*
X117585000Y-97265000D03*
X111235000Y-99805000D03*
%TD*%
D10*
%TO.C,SW44*%
X116098000Y-59165000D03*
D11*
X114093000Y-56625000D03*
D12*
X109013000Y-56625000D03*
D11*
X103933000Y-56625000D03*
D10*
X103171000Y-61705000D03*
D13*
X112823000Y-59165000D03*
X106473000Y-61705000D03*
%TD*%
D10*
%TO.C,SW82*%
X325648000Y-21065000D03*
D11*
X323643000Y-18525000D03*
D12*
X318563000Y-18525000D03*
D11*
X313483000Y-18525000D03*
D10*
X312721000Y-23605000D03*
D13*
X322373000Y-21065000D03*
X316023000Y-23605000D03*
%TD*%
D10*
%TO.C,SW30*%
X111335000Y-78215000D03*
D11*
X109330000Y-75675000D03*
D12*
X104250000Y-75675000D03*
D11*
X99170000Y-75675000D03*
D10*
X98408000Y-80755000D03*
D13*
X108060000Y-78215000D03*
X101710000Y-80755000D03*
%TD*%
D10*
%TO.C,SW61*%
X201823000Y-40115000D03*
D11*
X199818000Y-37575000D03*
D12*
X194738000Y-37575000D03*
D11*
X189658000Y-37575000D03*
D10*
X188896000Y-42655000D03*
D13*
X198548000Y-40115000D03*
X192198000Y-42655000D03*
%TD*%
D14*
%TO.C,J1*%
X165650000Y-145060000D03*
X171430000Y-145060000D03*
D15*
X164220000Y-144530000D03*
D16*
X164220000Y-148710000D03*
D15*
X172860000Y-144530000D03*
D16*
X172860000Y-148710000D03*
%TD*%
D10*
%TO.C,SW78*%
X325648000Y-59165000D03*
D11*
X323643000Y-56625000D03*
D12*
X318563000Y-56625000D03*
D11*
X313483000Y-56625000D03*
D10*
X312721000Y-61705000D03*
D13*
X322373000Y-59165000D03*
X316023000Y-61705000D03*
%TD*%
D10*
%TO.C,SW18*%
X139910000Y-97265000D03*
D11*
X137905000Y-94725000D03*
D12*
X132825000Y-94725000D03*
D11*
X127745000Y-94725000D03*
D10*
X126983000Y-99805000D03*
D13*
X136635000Y-97265000D03*
X130285000Y-99805000D03*
%TD*%
D10*
%TO.C,SW57*%
X125623000Y-40115000D03*
D11*
X123618000Y-37575000D03*
D12*
X118538000Y-37575000D03*
D11*
X113458000Y-37575000D03*
D10*
X112696000Y-42655000D03*
D13*
X122348000Y-40115000D03*
X115998000Y-42655000D03*
%TD*%
D10*
%TO.C,SW26*%
X30373000Y-78215000D03*
D11*
X28368000Y-75675000D03*
D12*
X23288000Y-75675000D03*
D11*
X18208000Y-75675000D03*
D10*
X17446000Y-80755000D03*
D13*
X27098000Y-78215000D03*
X20748000Y-80755000D03*
%TD*%
D10*
%TO.C,SW31*%
X130385000Y-78215000D03*
D11*
X128380000Y-75675000D03*
D12*
X123300000Y-75675000D03*
D11*
X118220000Y-75675000D03*
D10*
X117458000Y-80755000D03*
D13*
X127110000Y-78215000D03*
X120760000Y-80755000D03*
%TD*%
D10*
%TO.C,SW10*%
X273260000Y-121077000D03*
D11*
X271255000Y-118537000D03*
D12*
X266175000Y-118537000D03*
D11*
X261095000Y-118537000D03*
D10*
X260333000Y-123617000D03*
D13*
X269985000Y-121077000D03*
X263635000Y-123617000D03*
%TD*%
D10*
%TO.C,SW16*%
X101810000Y-97265000D03*
D11*
X99805000Y-94725000D03*
D12*
X94725000Y-94725000D03*
D11*
X89645000Y-94725000D03*
D10*
X88883000Y-99805000D03*
D13*
X98535000Y-97265000D03*
X92185000Y-99805000D03*
%TD*%
D10*
%TO.C,SW9*%
X254210000Y-121077000D03*
D11*
X252205000Y-118537000D03*
D12*
X247125000Y-118537000D03*
D11*
X242045000Y-118537000D03*
D10*
X241283000Y-123617000D03*
D13*
X250935000Y-121077000D03*
X244585000Y-123617000D03*
%TD*%
D10*
%TO.C,SW51*%
X249448000Y-59165000D03*
D11*
X247443000Y-56625000D03*
D12*
X242363000Y-56625000D03*
D11*
X237283000Y-56625000D03*
D10*
X236521000Y-61705000D03*
D13*
X246173000Y-59165000D03*
X239823000Y-61705000D03*
%TD*%
D10*
%TO.C,SW3*%
X120860000Y-121077000D03*
D11*
X118855000Y-118537000D03*
D12*
X113775000Y-118537000D03*
D11*
X108695000Y-118537000D03*
D10*
X107933000Y-123617000D03*
D13*
X117585000Y-121077000D03*
X111235000Y-123617000D03*
%TD*%
D10*
%TO.C,SW64*%
X266116000Y-40115000D03*
D11*
X264111000Y-37575000D03*
D12*
X259031000Y-37575000D03*
D11*
X253951000Y-37575000D03*
D10*
X253189000Y-42655000D03*
D13*
X262841000Y-40115000D03*
X256491000Y-42655000D03*
%TD*%
D10*
%TO.C,SW2*%
X101810000Y-121077000D03*
D11*
X99805000Y-118537000D03*
D12*
X94725000Y-118537000D03*
D11*
X89645000Y-118537000D03*
D10*
X88883000Y-123617000D03*
D13*
X98535000Y-121077000D03*
X92185000Y-123617000D03*
%TD*%
D10*
%TO.C,SW67*%
X75616000Y-21065000D03*
D11*
X73611000Y-18525000D03*
D12*
X68531000Y-18525000D03*
D11*
X63451000Y-18525000D03*
D10*
X62689000Y-23605000D03*
D13*
X72341000Y-21065000D03*
X65991000Y-23605000D03*
%TD*%
D10*
%TO.C,SW8*%
X235160000Y-121077000D03*
D11*
X233155000Y-118537000D03*
D12*
X228075000Y-118537000D03*
D11*
X222995000Y-118537000D03*
D10*
X222233000Y-123617000D03*
D13*
X231885000Y-121077000D03*
X225535000Y-123617000D03*
%TD*%
D10*
%TO.C,SW27*%
X54185000Y-78215000D03*
D11*
X52180000Y-75675000D03*
D12*
X47100000Y-75675000D03*
D11*
X42020000Y-75675000D03*
D10*
X41258000Y-80755000D03*
D13*
X50910000Y-78215000D03*
X44560000Y-80755000D03*
%TD*%
D10*
%TO.C,SW33*%
X168485000Y-78215000D03*
D11*
X166480000Y-75675000D03*
D12*
X161400000Y-75675000D03*
D11*
X156320000Y-75675000D03*
D10*
X155558000Y-80755000D03*
D13*
X165210000Y-78215000D03*
X158860000Y-80755000D03*
%TD*%
D10*
%TO.C,SW5*%
X168485000Y-121077000D03*
D11*
X166480000Y-118537000D03*
D12*
X161400000Y-118537000D03*
D11*
X156320000Y-118537000D03*
D10*
X155558000Y-123617000D03*
D13*
X165210000Y-121077000D03*
X158860000Y-123617000D03*
%TD*%
D10*
%TO.C,SW65*%
X27991000Y-21065000D03*
D11*
X25986000Y-18525000D03*
D12*
X20906000Y-18525000D03*
D11*
X15826000Y-18525000D03*
D10*
X15064000Y-23605000D03*
D13*
X24716000Y-21065000D03*
X18366000Y-23605000D03*
%TD*%
D10*
%TO.C,SW29*%
X92285000Y-78215000D03*
D11*
X90280000Y-75675000D03*
D12*
X85200000Y-75675000D03*
D11*
X80120000Y-75675000D03*
D10*
X79358000Y-80755000D03*
D13*
X89010000Y-78215000D03*
X82660000Y-80755000D03*
%TD*%
D10*
%TO.C,SW48*%
X192298000Y-59165000D03*
D11*
X190293000Y-56625000D03*
D12*
X185213000Y-56625000D03*
D11*
X180133000Y-56625000D03*
D10*
X179371000Y-61705000D03*
D13*
X189023000Y-59165000D03*
X182673000Y-61705000D03*
%TD*%
D17*
%TO.C,ST3*%
X42369000Y-44560000D03*
D18*
X42369000Y-29350000D03*
D17*
X18493000Y-44560000D03*
D18*
X18493000Y-29350000D03*
%TD*%
D10*
%TO.C,SW21*%
X197060000Y-97265000D03*
D11*
X195055000Y-94725000D03*
D12*
X189975000Y-94725000D03*
D11*
X184895000Y-94725000D03*
D10*
X184133000Y-99805000D03*
D13*
X193785000Y-97265000D03*
X187435000Y-99805000D03*
%TD*%
D17*
%TO.C,ST1*%
X287638000Y-101710000D03*
D18*
X287638000Y-86500000D03*
D17*
X263762000Y-101710000D03*
D18*
X263762000Y-86500000D03*
%TD*%
D17*
%TO.C,ST4*%
X189969000Y-25510000D03*
D18*
X189969000Y-10300000D03*
D17*
X89969000Y-25510000D03*
D18*
X89969000Y-10300000D03*
%TD*%
D10*
%TO.C,SW52*%
X280404000Y-59165000D03*
D11*
X278399000Y-56625000D03*
D12*
X273319000Y-56625000D03*
D11*
X268239000Y-56625000D03*
D10*
X267477000Y-61705000D03*
D13*
X277129000Y-59165000D03*
X270779000Y-61705000D03*
%TD*%
%TO.C,J3*%
X17000000Y-119563000D03*
X59000000Y-119563000D03*
%TD*%
D10*
%TO.C,SW66*%
X51804000Y-21065000D03*
D11*
X49799000Y-18525000D03*
D12*
X44719000Y-18525000D03*
D11*
X39639000Y-18525000D03*
D10*
X38877000Y-23605000D03*
D13*
X48529000Y-21065000D03*
X42179000Y-23605000D03*
%TD*%
D10*
%TO.C,SW58*%
X144673000Y-40115000D03*
D11*
X142668000Y-37575000D03*
D12*
X137588000Y-37575000D03*
D11*
X132508000Y-37575000D03*
D10*
X131746000Y-42655000D03*
D13*
X141398000Y-40115000D03*
X135048000Y-42655000D03*
%TD*%
D10*
%TO.C,SW75*%
X306597000Y-78215000D03*
D11*
X304592000Y-75675000D03*
D12*
X299512000Y-75675000D03*
D11*
X294432000Y-75675000D03*
D10*
X293670000Y-80755000D03*
D13*
X303322000Y-78215000D03*
X296972000Y-80755000D03*
%TD*%
D10*
%TO.C,SW72*%
X325648000Y-121077000D03*
D11*
X323643000Y-118537000D03*
D12*
X318563000Y-118537000D03*
D11*
X313483000Y-118537000D03*
D10*
X312721000Y-123617000D03*
D13*
X322373000Y-121077000D03*
X316023000Y-123617000D03*
%TD*%
D10*
%TO.C,SW80*%
X287548000Y-21065000D03*
D11*
X285543000Y-18525000D03*
D12*
X280463000Y-18525000D03*
D11*
X275383000Y-18525000D03*
D10*
X274621000Y-23605000D03*
D13*
X284273000Y-21065000D03*
X277923000Y-23605000D03*
%TD*%
D10*
%TO.C,SW81*%
X306597000Y-21065000D03*
D11*
X304592000Y-18525000D03*
D12*
X299512000Y-18525000D03*
D11*
X294432000Y-18525000D03*
D10*
X293670000Y-23605000D03*
D13*
X303322000Y-21065000D03*
X296972000Y-23605000D03*
%TD*%
D10*
%TO.C,SW23*%
X235160000Y-97265000D03*
D11*
X233155000Y-94725000D03*
D12*
X228075000Y-94725000D03*
D11*
X222995000Y-94725000D03*
D10*
X222233000Y-99805000D03*
D13*
X231885000Y-97265000D03*
X225535000Y-99805000D03*
%TD*%
D10*
%TO.C,SW42*%
X77997000Y-59165000D03*
D11*
X75992000Y-56625000D03*
D12*
X70912000Y-56625000D03*
D11*
X65832000Y-56625000D03*
D10*
X65070000Y-61705000D03*
D13*
X74722000Y-59165000D03*
X68372000Y-61705000D03*
%TD*%
D10*
%TO.C,SW34*%
X187535000Y-78215000D03*
D11*
X185530000Y-75675000D03*
D12*
X180450000Y-75675000D03*
D11*
X175370000Y-75675000D03*
D10*
X174608000Y-80755000D03*
D13*
X184260000Y-78215000D03*
X177910000Y-80755000D03*
%TD*%
D10*
%TO.C,SW4*%
X149435000Y-121077000D03*
D11*
X147430000Y-118537000D03*
D12*
X142350000Y-118537000D03*
D11*
X137270000Y-118537000D03*
D10*
X136508000Y-123617000D03*
D13*
X146160000Y-121077000D03*
X139810000Y-123617000D03*
%TD*%
D10*
%TO.C,SW62*%
X220872000Y-40115000D03*
D11*
X218867000Y-37575000D03*
D12*
X213787000Y-37575000D03*
D11*
X208707000Y-37575000D03*
D10*
X207945000Y-42655000D03*
D13*
X217597000Y-40115000D03*
X211247000Y-42655000D03*
%TD*%
D10*
%TO.C,SW73*%
X306597000Y-97265000D03*
D11*
X304592000Y-94725000D03*
D12*
X299512000Y-94725000D03*
D11*
X294432000Y-94725000D03*
D10*
X293670000Y-99805000D03*
D13*
X303322000Y-97265000D03*
X296972000Y-99805000D03*
%TD*%
D10*
%TO.C,SW49*%
X211348000Y-59165000D03*
D11*
X209343000Y-56625000D03*
D12*
X204263000Y-56625000D03*
D11*
X199183000Y-56625000D03*
D10*
X198421000Y-61705000D03*
D13*
X208073000Y-59165000D03*
X201723000Y-61705000D03*
%TD*%
D10*
%TO.C,SW76*%
X325648000Y-78215000D03*
D11*
X323643000Y-75675000D03*
D12*
X318563000Y-75675000D03*
D11*
X313483000Y-75675000D03*
D10*
X312721000Y-80755000D03*
D13*
X322373000Y-78215000D03*
X316023000Y-80755000D03*
%TD*%
D10*
%TO.C,SW47*%
X173247000Y-59165000D03*
D11*
X171242000Y-56625000D03*
D12*
X166162000Y-56625000D03*
D11*
X161082000Y-56625000D03*
D10*
X160320000Y-61705000D03*
D13*
X169972000Y-59165000D03*
X163622000Y-61705000D03*
%TD*%
D10*
%TO.C,SW36*%
X225635000Y-78215000D03*
D11*
X223630000Y-75675000D03*
D12*
X218550000Y-75675000D03*
D11*
X213470000Y-75675000D03*
D10*
X212708000Y-80755000D03*
D13*
X222360000Y-78215000D03*
X216010000Y-80755000D03*
%TD*%
D10*
%TO.C,SW39*%
X287548000Y-78215000D03*
D11*
X285543000Y-75675000D03*
D12*
X280463000Y-75675000D03*
D11*
X275383000Y-75675000D03*
D10*
X274621000Y-80755000D03*
D13*
X284273000Y-78215000D03*
X277923000Y-80755000D03*
%TD*%
D10*
%TO.C,SW35*%
X206585000Y-78215000D03*
D11*
X204580000Y-75675000D03*
D12*
X199500000Y-75675000D03*
D11*
X194420000Y-75675000D03*
D10*
X193658000Y-80755000D03*
D13*
X203310000Y-78215000D03*
X196960000Y-80755000D03*
%TD*%
D10*
%TO.C,SW71*%
X266116000Y-21065000D03*
D11*
X264111000Y-18525000D03*
D12*
X259031000Y-18525000D03*
D11*
X253951000Y-18525000D03*
D10*
X253189000Y-23605000D03*
D13*
X262841000Y-21065000D03*
X256491000Y-23605000D03*
%TD*%
D10*
%TO.C,SW46*%
X154198000Y-59165000D03*
D11*
X152193000Y-56625000D03*
D12*
X147113000Y-56625000D03*
D11*
X142033000Y-56625000D03*
D10*
X141271000Y-61705000D03*
D13*
X150923000Y-59165000D03*
X144573000Y-61705000D03*
%TD*%
D10*
%TO.C,SW15*%
X82760000Y-97265000D03*
D11*
X80755000Y-94725000D03*
D12*
X75675000Y-94725000D03*
D11*
X70595000Y-94725000D03*
D10*
X69833000Y-99805000D03*
D13*
X79485000Y-97265000D03*
X73135000Y-99805000D03*
%TD*%
D10*
%TO.C,SW79*%
X306597000Y-40115000D03*
D11*
X304592000Y-37575000D03*
D12*
X299512000Y-37575000D03*
D11*
X294432000Y-37575000D03*
D10*
X293670000Y-42655000D03*
D13*
X303322000Y-40115000D03*
X296972000Y-42655000D03*
%TD*%
D10*
%TO.C,SW28*%
X73235000Y-78215000D03*
D11*
X71230000Y-75675000D03*
D12*
X66150000Y-75675000D03*
D11*
X61070000Y-75675000D03*
D10*
X60308000Y-80755000D03*
D13*
X69960000Y-78215000D03*
X63610000Y-80755000D03*
%TD*%
D10*
%TO.C,SW43*%
X97048000Y-59165000D03*
D11*
X95043000Y-56625000D03*
D12*
X89963000Y-56625000D03*
D11*
X84883000Y-56625000D03*
D10*
X84121000Y-61705000D03*
D13*
X93773000Y-59165000D03*
X87423000Y-61705000D03*
%TD*%
D10*
%TO.C,SW32*%
X149435000Y-78215000D03*
D11*
X147430000Y-75675000D03*
D12*
X142350000Y-75675000D03*
D11*
X137270000Y-75675000D03*
D10*
X136508000Y-80755000D03*
D13*
X146160000Y-78215000D03*
X139810000Y-80755000D03*
%TD*%
D10*
%TO.C,SW19*%
X158960000Y-97265000D03*
D11*
X156955000Y-94725000D03*
D12*
X151875000Y-94725000D03*
D11*
X146795000Y-94725000D03*
D10*
X146033000Y-99805000D03*
D13*
X155685000Y-97265000D03*
X149335000Y-99805000D03*
%TD*%
D10*
%TO.C,SW11*%
X292310000Y-121077000D03*
D11*
X290305000Y-118537000D03*
D12*
X285225000Y-118537000D03*
D11*
X280145000Y-118537000D03*
D10*
X279383000Y-123617000D03*
D13*
X289035000Y-121077000D03*
X282685000Y-123617000D03*
%TD*%
D10*
%TO.C,SW13*%
X44660000Y-97265000D03*
D11*
X42655000Y-94725000D03*
D12*
X37575000Y-94725000D03*
D11*
X32495000Y-94725000D03*
D10*
X31733000Y-99805000D03*
D13*
X41385000Y-97265000D03*
X35035000Y-99805000D03*
%TD*%
D10*
%TO.C,SW69*%
X218491000Y-21065000D03*
D11*
X216486000Y-18525000D03*
D12*
X211406000Y-18525000D03*
D11*
X206326000Y-18525000D03*
D10*
X205564000Y-23605000D03*
D13*
X215216000Y-21065000D03*
X208866000Y-23605000D03*
%TD*%
D10*
%TO.C,SW55*%
X87523000Y-40115000D03*
D11*
X85518000Y-37575000D03*
D12*
X80438000Y-37575000D03*
D11*
X75358000Y-37575000D03*
D10*
X74596000Y-42655000D03*
D13*
X84248000Y-40115000D03*
X77898000Y-42655000D03*
%TD*%
D10*
%TO.C,SW50*%
X230398000Y-59165000D03*
D11*
X228393000Y-56625000D03*
D12*
X223313000Y-56625000D03*
D11*
X218233000Y-56625000D03*
D10*
X217471000Y-61705000D03*
D13*
X227123000Y-59165000D03*
X220773000Y-61705000D03*
%TD*%
D10*
%TO.C,SW7*%
X206585000Y-121077000D03*
D11*
X204580000Y-118537000D03*
D12*
X199500000Y-118537000D03*
D11*
X194420000Y-118537000D03*
D10*
X193658000Y-123617000D03*
D13*
X203310000Y-121077000D03*
X196960000Y-123617000D03*
%TD*%
D10*
%TO.C,SW20*%
X178010000Y-97265000D03*
D11*
X176005000Y-94725000D03*
D12*
X170925000Y-94725000D03*
D11*
X165845000Y-94725000D03*
D10*
X165083000Y-99805000D03*
D13*
X174735000Y-97265000D03*
X168385000Y-99805000D03*
%TD*%
D10*
%TO.C,SW54*%
X68473000Y-40115000D03*
D11*
X66468000Y-37575000D03*
D12*
X61388000Y-37575000D03*
D11*
X56308000Y-37575000D03*
D10*
X55546000Y-42655000D03*
D13*
X65198000Y-40115000D03*
X58848000Y-42655000D03*
%TD*%
D10*
%TO.C,SW59*%
X163723000Y-40115000D03*
D11*
X161718000Y-37575000D03*
D12*
X156638000Y-37575000D03*
D11*
X151558000Y-37575000D03*
D10*
X150796000Y-42655000D03*
D13*
X160448000Y-40115000D03*
X154098000Y-42655000D03*
%TD*%
D10*
%TO.C,SW56*%
X106572000Y-40115000D03*
D11*
X104567000Y-37575000D03*
D12*
X99487000Y-37575000D03*
D11*
X94407000Y-37575000D03*
D10*
X93645000Y-42655000D03*
D13*
X103297000Y-40115000D03*
X96947000Y-42655000D03*
%TD*%
D10*
%TO.C,SW70*%
X242304000Y-21065000D03*
D11*
X240299000Y-18525000D03*
D12*
X235219000Y-18525000D03*
D11*
X230139000Y-18525000D03*
D10*
X229377000Y-23605000D03*
D13*
X239029000Y-21065000D03*
X232679000Y-23605000D03*
%TD*%
D10*
%TO.C,SW63*%
X239923000Y-40115000D03*
D11*
X237918000Y-37575000D03*
D12*
X232838000Y-37575000D03*
D11*
X227758000Y-37575000D03*
D10*
X226996000Y-42655000D03*
D13*
X236648000Y-40115000D03*
X230298000Y-42655000D03*
%TD*%
D10*
%TO.C,SW77*%
X306597000Y-59165000D03*
D11*
X304592000Y-56625000D03*
D12*
X299512000Y-56625000D03*
D11*
X294432000Y-56625000D03*
D10*
X293670000Y-61705000D03*
D13*
X303322000Y-59165000D03*
X296972000Y-61705000D03*
%TD*%
D17*
%TO.C,ST2*%
X285257000Y-63610000D03*
D18*
X285257000Y-48400000D03*
D17*
X261381000Y-63610000D03*
D18*
X261381000Y-48400000D03*
%TD*%
D10*
%TO.C,SW24*%
X254210000Y-97265000D03*
D11*
X252205000Y-94725000D03*
D12*
X247125000Y-94725000D03*
D11*
X242045000Y-94725000D03*
D10*
X241283000Y-99805000D03*
D13*
X250935000Y-97265000D03*
X244585000Y-99805000D03*
%TD*%
D10*
%TO.C,SW40*%
X32754000Y-59165000D03*
D11*
X30749000Y-56625000D03*
D12*
X25669000Y-56625000D03*
D11*
X20589000Y-56625000D03*
D10*
X19827000Y-61705000D03*
D13*
X29479000Y-59165000D03*
X23129000Y-61705000D03*
%TD*%
D10*
%TO.C,SW41*%
X58948000Y-59165000D03*
D11*
X56943000Y-56625000D03*
D12*
X51863000Y-56625000D03*
D11*
X46783000Y-56625000D03*
D10*
X46021000Y-61705000D03*
D13*
X55673000Y-59165000D03*
X49323000Y-61705000D03*
%TD*%
D10*
%TO.C,SW1*%
X82760000Y-121077000D03*
D11*
X80755000Y-118537000D03*
D12*
X75675000Y-118537000D03*
D11*
X70595000Y-118537000D03*
D10*
X69833000Y-123617000D03*
D13*
X79485000Y-121077000D03*
X73135000Y-123617000D03*
%TD*%
D10*
%TO.C,SW6*%
X187535000Y-121077000D03*
D11*
X185530000Y-118537000D03*
D12*
X180450000Y-118537000D03*
D11*
X175370000Y-118537000D03*
D10*
X174608000Y-123617000D03*
D13*
X184260000Y-121077000D03*
X177910000Y-123617000D03*
%TD*%
D10*
%TO.C,SW14*%
X63710000Y-97265000D03*
D11*
X61705000Y-94725000D03*
D12*
X56625000Y-94725000D03*
D11*
X51545000Y-94725000D03*
D10*
X50783000Y-99805000D03*
D13*
X60435000Y-97265000D03*
X54085000Y-99805000D03*
%TD*%
D10*
%TO.C,SW25*%
X282785000Y-97265000D03*
D11*
X280780000Y-94725000D03*
D12*
X275700000Y-94725000D03*
D11*
X270620000Y-94725000D03*
D10*
X269858000Y-99805000D03*
D13*
X279510000Y-97265000D03*
X273160000Y-99805000D03*
%TD*%
D10*
%TO.C,SW45*%
X135148000Y-59165000D03*
D11*
X133143000Y-56625000D03*
D12*
X128063000Y-56625000D03*
D11*
X122983000Y-56625000D03*
D10*
X122221000Y-61705000D03*
D13*
X131873000Y-59165000D03*
X125523000Y-61705000D03*
%TD*%
M02*
