M48
; DRILL file KiCad 10.0.3 date 2026-06-10T13:14:34
; FORMAT={-:-/ absolute / metric / decimal}
; #@! TF.CreationDate,2026-06-10T13:14:34-07:00
; #@! TF.GenerationSoftware,Kicad,Pcbnew,10.0.3
; #@! TF.FileFunction,NonPlated,1,2,NPTH
FMAT,2
METRIC
; #@! TA.AperFunction,NonPlated,NPTH,ComponentDrill
T1C0.650
; #@! TA.AperFunction,NonPlated,NPTH,ComponentDrill
T2C1.750
; #@! TA.AperFunction,NonPlated,NPTH,ComponentDrill
T3C1.800
; #@! TA.AperFunction,NonPlated,NPTH,ComponentDrill
T4C3.048
; #@! TA.AperFunction,NonPlated,NPTH,ComponentDrill
T5C3.988
; #@! TA.AperFunction,NonPlated,NPTH,ComponentDrill
T6C4.000
%
G90
G05
T1
X165.65Y-145.06
X171.43Y-145.06
T2
X13.445Y-94.725
X15.826Y-18.525
X18.208Y-75.675
X20.589Y-56.625
X23.605Y-94.725
X25.351Y-37.575
X25.986Y-18.525
X28.368Y-75.675
X30.749Y-56.625
X32.495Y-94.725
X35.511Y-37.575
X39.639Y-18.525
X42.02Y-75.675
X42.655Y-94.725
X46.783Y-56.625
X49.799Y-18.525
X51.545Y-94.725
X52.18Y-75.675
X56.308Y-37.575
X56.943Y-56.625
X61.07Y-75.675
X61.705Y-94.725
X63.451Y-18.525
X65.832Y-56.625
X66.468Y-37.575
X70.595Y-94.725
X70.595Y-118.537
X71.23Y-75.675
X73.611Y-18.525
X75.358Y-37.575
X75.992Y-56.625
X80.12Y-75.675
X80.755Y-94.725
X80.755Y-118.537
X84.883Y-56.625
X85.518Y-37.575
X89.645Y-94.725
X89.645Y-118.537
X90.28Y-75.675
X94.407Y-37.575
X95.043Y-56.625
X99.17Y-75.675
X99.805Y-94.725
X99.805Y-118.537
X103.933Y-56.625
X104.567Y-37.575
X108.695Y-94.725
X108.695Y-118.537
X109.33Y-75.675
X113.458Y-37.575
X114.093Y-56.625
X118.22Y-75.675
X118.855Y-94.725
X118.855Y-118.537
X122.983Y-56.625
X123.618Y-37.575
X127.745Y-94.725
X128.38Y-75.675
X132.508Y-37.575
X133.143Y-56.625
X134.889Y-18.525
X137.27Y-75.675
X137.27Y-118.537
X137.905Y-94.725
X142.033Y-56.625
X142.668Y-37.575
X145.049Y-18.525
X146.795Y-94.725
X147.43Y-75.675
X147.43Y-118.537
X151.558Y-37.575
X152.193Y-56.625
X156.32Y-75.675
X156.32Y-118.537
X156.955Y-94.725
X161.082Y-56.625
X161.718Y-37.575
X165.845Y-94.725
X166.48Y-75.675
X166.48Y-118.537
X170.608Y-37.575
X171.242Y-56.625
X175.37Y-75.675
X175.37Y-118.537
X176.005Y-94.725
X180.133Y-56.625
X180.768Y-37.575
X184.895Y-94.725
X185.53Y-75.675
X185.53Y-118.537
X189.658Y-37.575
X190.293Y-56.625
X194.42Y-75.675
X194.42Y-118.537
X195.055Y-94.725
X199.183Y-56.625
X199.818Y-37.575
X203.945Y-94.725
X204.58Y-75.675
X204.58Y-118.537
X206.326Y-18.525
X208.707Y-37.575
X209.343Y-56.625
X213.47Y-75.675
X214.105Y-94.725
X216.486Y-18.525
X218.233Y-56.625
X218.867Y-37.575
X222.995Y-94.725
X222.995Y-118.537
X223.63Y-75.675
X227.758Y-37.575
X228.393Y-56.625
X230.139Y-18.525
X232.52Y-75.675
X233.155Y-94.725
X233.155Y-118.537
X237.283Y-56.625
X237.918Y-37.575
X240.299Y-18.525
X242.045Y-94.725
X242.045Y-118.537
X242.68Y-75.675
X247.443Y-56.625
X251.57Y-75.675
X252.205Y-94.725
X252.205Y-118.537
X253.951Y-18.525
X253.951Y-37.575
X261.095Y-118.537
X261.73Y-75.675
X264.111Y-18.525
X264.111Y-37.575
X268.239Y-56.625
X270.62Y-94.725
X271.255Y-118.537
X275.383Y-18.525
X275.383Y-75.675
X278.399Y-56.625
X280.145Y-118.537
X280.78Y-94.725
X285.543Y-18.525
X285.543Y-75.675
X290.305Y-118.537
X294.432Y-18.525
X294.432Y-37.575
X294.432Y-56.625
X294.432Y-75.675
X294.432Y-94.725
X304.592Y-18.525
X304.592Y-37.575
X304.592Y-56.625
X304.592Y-75.675
X304.592Y-94.725
X313.483Y-18.525
X313.483Y-56.625
X313.483Y-75.675
X313.483Y-94.725
X313.483Y-118.537
X323.643Y-18.525
X323.643Y-56.625
X323.643Y-75.675
X323.643Y-94.725
X323.643Y-118.537
T3
X17.0Y-119.563
X59.0Y-119.563
T4
X18.493Y-44.56
X42.369Y-44.56
X89.969Y-25.51
X189.969Y-25.51
X261.381Y-63.61
X263.762Y-101.71
X285.257Y-63.61
X287.638Y-101.71
T5
X18.493Y-29.35
X42.369Y-29.35
X89.969Y-10.3
X189.969Y-10.3
X261.381Y-48.4
X263.762Y-86.5
X285.257Y-48.4
X287.638Y-86.5
T6
X18.525Y-94.725
X20.906Y-18.525
X23.288Y-75.675
X25.669Y-56.625
X30.431Y-37.575
X37.575Y-94.725
X44.719Y-18.525
X47.1Y-75.675
X51.863Y-56.625
X56.625Y-94.725
X61.388Y-37.575
X66.15Y-75.675
X68.531Y-18.525
X70.912Y-56.625
X75.675Y-94.725
X75.675Y-118.537
X80.438Y-37.575
X85.2Y-75.675
X89.963Y-56.625
X94.725Y-94.725
X94.725Y-118.537
X99.487Y-37.575
X104.25Y-75.675
X109.013Y-56.625
X113.775Y-94.725
X113.775Y-118.537
X118.538Y-37.575
X123.3Y-75.675
X128.063Y-56.625
X132.825Y-94.725
X137.588Y-37.575
X139.969Y-18.525
X142.35Y-75.675
X142.35Y-118.537
X147.113Y-56.625
X151.875Y-94.725
X156.638Y-37.575
X161.4Y-75.675
X161.4Y-118.537
X166.162Y-56.625
X170.925Y-94.725
X175.688Y-37.575
X180.45Y-75.675
X180.45Y-118.537
X185.213Y-56.625
X189.975Y-94.725
X194.738Y-37.575
X199.5Y-75.675
X199.5Y-118.537
X204.263Y-56.625
X209.025Y-94.725
X211.406Y-18.525
X213.787Y-37.575
X218.55Y-75.675
X223.313Y-56.625
X228.075Y-94.725
X228.075Y-118.537
X232.838Y-37.575
X235.219Y-18.525
X237.6Y-75.675
X242.363Y-56.625
X247.125Y-94.725
X247.125Y-118.537
X256.65Y-75.675
X259.031Y-18.525
X259.031Y-37.575
X266.175Y-118.537
X273.319Y-56.625
X275.7Y-94.725
X280.463Y-18.525
X280.463Y-75.675
X285.225Y-118.537
X299.512Y-18.525
X299.512Y-37.575
X299.512Y-56.625
X299.512Y-75.675
X299.512Y-94.725
X318.563Y-18.525
X318.563Y-56.625
X318.563Y-75.675
X318.563Y-94.725
X318.563Y-118.537
M30
