%TF.GenerationSoftware,KiCad,Pcbnew,10.0.3*%
%TF.CreationDate,2026-06-10T13:14:35-07:00*%
%TF.ProjectId,oso75,6f736f37-352e-46b6-9963-61645f706362,rev?*%
%TF.SameCoordinates,Original*%
%TF.FileFunction,Legend,Bot*%
%TF.FilePolarity,Positive*%
%FSLAX46Y46*%
G04 Gerber Fmt 4.6, Leading zero omitted, Abs format (unit mm)*
G04 Created by KiCad (PCBNEW 10.0.3) date 2026-06-10 13:14:35*
%MOMM*%
%LPD*%
G01*
G04 APERTURE LIST*
%ADD10C,0.200000*%
%ADD11C,0.120000*%
G04 APERTURE END LIST*
D10*
X87892854Y-133183528D02*
X87607140Y-133183528D01*
X87607140Y-133183528D02*
X87464283Y-133254957D01*
X87464283Y-133254957D02*
X87321426Y-133397814D01*
X87321426Y-133397814D02*
X87249997Y-133683528D01*
X87249997Y-133683528D02*
X87249997Y-134183528D01*
X87249997Y-134183528D02*
X87321426Y-134469242D01*
X87321426Y-134469242D02*
X87464283Y-134612100D01*
X87464283Y-134612100D02*
X87607140Y-134683528D01*
X87607140Y-134683528D02*
X87892854Y-134683528D01*
X87892854Y-134683528D02*
X88035712Y-134612100D01*
X88035712Y-134612100D02*
X88178569Y-134469242D01*
X88178569Y-134469242D02*
X88249997Y-134183528D01*
X88249997Y-134183528D02*
X88249997Y-133683528D01*
X88249997Y-133683528D02*
X88178569Y-133397814D01*
X88178569Y-133397814D02*
X88035712Y-133254957D01*
X88035712Y-133254957D02*
X87892854Y-133183528D01*
X86678568Y-134612100D02*
X86464283Y-134683528D01*
X86464283Y-134683528D02*
X86107140Y-134683528D01*
X86107140Y-134683528D02*
X85964283Y-134612100D01*
X85964283Y-134612100D02*
X85892854Y-134540671D01*
X85892854Y-134540671D02*
X85821425Y-134397814D01*
X85821425Y-134397814D02*
X85821425Y-134254957D01*
X85821425Y-134254957D02*
X85892854Y-134112100D01*
X85892854Y-134112100D02*
X85964283Y-134040671D01*
X85964283Y-134040671D02*
X86107140Y-133969242D01*
X86107140Y-133969242D02*
X86392854Y-133897814D01*
X86392854Y-133897814D02*
X86535711Y-133826385D01*
X86535711Y-133826385D02*
X86607140Y-133754957D01*
X86607140Y-133754957D02*
X86678568Y-133612100D01*
X86678568Y-133612100D02*
X86678568Y-133469242D01*
X86678568Y-133469242D02*
X86607140Y-133326385D01*
X86607140Y-133326385D02*
X86535711Y-133254957D01*
X86535711Y-133254957D02*
X86392854Y-133183528D01*
X86392854Y-133183528D02*
X86035711Y-133183528D01*
X86035711Y-133183528D02*
X85821425Y-133254957D01*
X84892854Y-133183528D02*
X84607140Y-133183528D01*
X84607140Y-133183528D02*
X84464283Y-133254957D01*
X84464283Y-133254957D02*
X84321426Y-133397814D01*
X84321426Y-133397814D02*
X84249997Y-133683528D01*
X84249997Y-133683528D02*
X84249997Y-134183528D01*
X84249997Y-134183528D02*
X84321426Y-134469242D01*
X84321426Y-134469242D02*
X84464283Y-134612100D01*
X84464283Y-134612100D02*
X84607140Y-134683528D01*
X84607140Y-134683528D02*
X84892854Y-134683528D01*
X84892854Y-134683528D02*
X85035712Y-134612100D01*
X85035712Y-134612100D02*
X85178569Y-134469242D01*
X85178569Y-134469242D02*
X85249997Y-134183528D01*
X85249997Y-134183528D02*
X85249997Y-133683528D01*
X85249997Y-133683528D02*
X85178569Y-133397814D01*
X85178569Y-133397814D02*
X85035712Y-133254957D01*
X85035712Y-133254957D02*
X84892854Y-133183528D01*
X83749997Y-133183528D02*
X82749997Y-133183528D01*
X82749997Y-133183528D02*
X83392854Y-134683528D01*
X81464283Y-133183528D02*
X82178569Y-133183528D01*
X82178569Y-133183528D02*
X82249997Y-133897814D01*
X82249997Y-133897814D02*
X82178569Y-133826385D01*
X82178569Y-133826385D02*
X82035712Y-133754957D01*
X82035712Y-133754957D02*
X81678569Y-133754957D01*
X81678569Y-133754957D02*
X81535712Y-133826385D01*
X81535712Y-133826385D02*
X81464283Y-133897814D01*
X81464283Y-133897814D02*
X81392854Y-134040671D01*
X81392854Y-134040671D02*
X81392854Y-134397814D01*
X81392854Y-134397814D02*
X81464283Y-134540671D01*
X81464283Y-134540671D02*
X81535712Y-134612100D01*
X81535712Y-134612100D02*
X81678569Y-134683528D01*
X81678569Y-134683528D02*
X82035712Y-134683528D01*
X82035712Y-134683528D02*
X82178569Y-134612100D01*
X82178569Y-134612100D02*
X82249997Y-134540671D01*
X79607141Y-134683528D02*
X79607141Y-133683528D01*
X79607141Y-133969242D02*
X79535712Y-133826385D01*
X79535712Y-133826385D02*
X79464284Y-133754957D01*
X79464284Y-133754957D02*
X79321426Y-133683528D01*
X79321426Y-133683528D02*
X79178569Y-133683528D01*
X78107141Y-134612100D02*
X78249998Y-134683528D01*
X78249998Y-134683528D02*
X78535713Y-134683528D01*
X78535713Y-134683528D02*
X78678570Y-134612100D01*
X78678570Y-134612100D02*
X78749998Y-134469242D01*
X78749998Y-134469242D02*
X78749998Y-133897814D01*
X78749998Y-133897814D02*
X78678570Y-133754957D01*
X78678570Y-133754957D02*
X78535713Y-133683528D01*
X78535713Y-133683528D02*
X78249998Y-133683528D01*
X78249998Y-133683528D02*
X78107141Y-133754957D01*
X78107141Y-133754957D02*
X78035713Y-133897814D01*
X78035713Y-133897814D02*
X78035713Y-134040671D01*
X78035713Y-134040671D02*
X78749998Y-134183528D01*
X77535713Y-133683528D02*
X77178570Y-134683528D01*
X77178570Y-134683528D02*
X76821427Y-133683528D01*
X75178570Y-134254957D02*
X74464285Y-134254957D01*
X75321427Y-134683528D02*
X74821427Y-133183528D01*
X74821427Y-133183528D02*
X74321427Y-134683528D01*
X71607142Y-133326385D02*
X71535714Y-133254957D01*
X71535714Y-133254957D02*
X71392857Y-133183528D01*
X71392857Y-133183528D02*
X71035714Y-133183528D01*
X71035714Y-133183528D02*
X70892857Y-133254957D01*
X70892857Y-133254957D02*
X70821428Y-133326385D01*
X70821428Y-133326385D02*
X70749999Y-133469242D01*
X70749999Y-133469242D02*
X70749999Y-133612100D01*
X70749999Y-133612100D02*
X70821428Y-133826385D01*
X70821428Y-133826385D02*
X71678571Y-134683528D01*
X71678571Y-134683528D02*
X70749999Y-134683528D01*
X69821428Y-133183528D02*
X69678571Y-133183528D01*
X69678571Y-133183528D02*
X69535714Y-133254957D01*
X69535714Y-133254957D02*
X69464286Y-133326385D01*
X69464286Y-133326385D02*
X69392857Y-133469242D01*
X69392857Y-133469242D02*
X69321428Y-133754957D01*
X69321428Y-133754957D02*
X69321428Y-134112100D01*
X69321428Y-134112100D02*
X69392857Y-134397814D01*
X69392857Y-134397814D02*
X69464286Y-134540671D01*
X69464286Y-134540671D02*
X69535714Y-134612100D01*
X69535714Y-134612100D02*
X69678571Y-134683528D01*
X69678571Y-134683528D02*
X69821428Y-134683528D01*
X69821428Y-134683528D02*
X69964286Y-134612100D01*
X69964286Y-134612100D02*
X70035714Y-134540671D01*
X70035714Y-134540671D02*
X70107143Y-134397814D01*
X70107143Y-134397814D02*
X70178571Y-134112100D01*
X70178571Y-134112100D02*
X70178571Y-133754957D01*
X70178571Y-133754957D02*
X70107143Y-133469242D01*
X70107143Y-133469242D02*
X70035714Y-133326385D01*
X70035714Y-133326385D02*
X69964286Y-133254957D01*
X69964286Y-133254957D02*
X69821428Y-133183528D01*
X68750000Y-133326385D02*
X68678572Y-133254957D01*
X68678572Y-133254957D02*
X68535715Y-133183528D01*
X68535715Y-133183528D02*
X68178572Y-133183528D01*
X68178572Y-133183528D02*
X68035715Y-133254957D01*
X68035715Y-133254957D02*
X67964286Y-133326385D01*
X67964286Y-133326385D02*
X67892857Y-133469242D01*
X67892857Y-133469242D02*
X67892857Y-133612100D01*
X67892857Y-133612100D02*
X67964286Y-133826385D01*
X67964286Y-133826385D02*
X68821429Y-134683528D01*
X68821429Y-134683528D02*
X67892857Y-134683528D01*
X66607144Y-133183528D02*
X66892858Y-133183528D01*
X66892858Y-133183528D02*
X67035715Y-133254957D01*
X67035715Y-133254957D02*
X67107144Y-133326385D01*
X67107144Y-133326385D02*
X67250001Y-133540671D01*
X67250001Y-133540671D02*
X67321429Y-133826385D01*
X67321429Y-133826385D02*
X67321429Y-134397814D01*
X67321429Y-134397814D02*
X67250001Y-134540671D01*
X67250001Y-134540671D02*
X67178572Y-134612100D01*
X67178572Y-134612100D02*
X67035715Y-134683528D01*
X67035715Y-134683528D02*
X66750001Y-134683528D01*
X66750001Y-134683528D02*
X66607144Y-134612100D01*
X66607144Y-134612100D02*
X66535715Y-134540671D01*
X66535715Y-134540671D02*
X66464286Y-134397814D01*
X66464286Y-134397814D02*
X66464286Y-134040671D01*
X66464286Y-134040671D02*
X66535715Y-133897814D01*
X66535715Y-133897814D02*
X66607144Y-133826385D01*
X66607144Y-133826385D02*
X66750001Y-133754957D01*
X66750001Y-133754957D02*
X67035715Y-133754957D01*
X67035715Y-133754957D02*
X67178572Y-133826385D01*
X67178572Y-133826385D02*
X67250001Y-133897814D01*
X67250001Y-133897814D02*
X67321429Y-134040671D01*
X65821430Y-134112100D02*
X64678573Y-134112100D01*
X63678572Y-133183528D02*
X63535715Y-133183528D01*
X63535715Y-133183528D02*
X63392858Y-133254957D01*
X63392858Y-133254957D02*
X63321430Y-133326385D01*
X63321430Y-133326385D02*
X63250001Y-133469242D01*
X63250001Y-133469242D02*
X63178572Y-133754957D01*
X63178572Y-133754957D02*
X63178572Y-134112100D01*
X63178572Y-134112100D02*
X63250001Y-134397814D01*
X63250001Y-134397814D02*
X63321430Y-134540671D01*
X63321430Y-134540671D02*
X63392858Y-134612100D01*
X63392858Y-134612100D02*
X63535715Y-134683528D01*
X63535715Y-134683528D02*
X63678572Y-134683528D01*
X63678572Y-134683528D02*
X63821430Y-134612100D01*
X63821430Y-134612100D02*
X63892858Y-134540671D01*
X63892858Y-134540671D02*
X63964287Y-134397814D01*
X63964287Y-134397814D02*
X64035715Y-134112100D01*
X64035715Y-134112100D02*
X64035715Y-133754957D01*
X64035715Y-133754957D02*
X63964287Y-133469242D01*
X63964287Y-133469242D02*
X63892858Y-133326385D01*
X63892858Y-133326385D02*
X63821430Y-133254957D01*
X63821430Y-133254957D02*
X63678572Y-133183528D01*
X61892859Y-133183528D02*
X62178573Y-133183528D01*
X62178573Y-133183528D02*
X62321430Y-133254957D01*
X62321430Y-133254957D02*
X62392859Y-133326385D01*
X62392859Y-133326385D02*
X62535716Y-133540671D01*
X62535716Y-133540671D02*
X62607144Y-133826385D01*
X62607144Y-133826385D02*
X62607144Y-134397814D01*
X62607144Y-134397814D02*
X62535716Y-134540671D01*
X62535716Y-134540671D02*
X62464287Y-134612100D01*
X62464287Y-134612100D02*
X62321430Y-134683528D01*
X62321430Y-134683528D02*
X62035716Y-134683528D01*
X62035716Y-134683528D02*
X61892859Y-134612100D01*
X61892859Y-134612100D02*
X61821430Y-134540671D01*
X61821430Y-134540671D02*
X61750001Y-134397814D01*
X61750001Y-134397814D02*
X61750001Y-134040671D01*
X61750001Y-134040671D02*
X61821430Y-133897814D01*
X61821430Y-133897814D02*
X61892859Y-133826385D01*
X61892859Y-133826385D02*
X62035716Y-133754957D01*
X62035716Y-133754957D02*
X62321430Y-133754957D01*
X62321430Y-133754957D02*
X62464287Y-133826385D01*
X62464287Y-133826385D02*
X62535716Y-133897814D01*
X62535716Y-133897814D02*
X62607144Y-134040671D01*
%TO.C,SW12*%
D11*
X18725000Y-97425000D02*
X13625000Y-97425000D01*
X22625000Y-101625000D02*
X17525000Y-101625000D01*
X20725000Y-95425000D02*
G75*
G02*
X18725000Y-97425000I-1999999J-1D01*
G01*
X24625000Y-99625000D02*
G75*
G02*
X22625000Y-101625000I-1999999J-1D01*
G01*
%TO.C,SW68*%
X140169000Y-21225000D02*
X135069000Y-21225000D01*
X144069000Y-25425000D02*
X138969000Y-25425000D01*
X142169000Y-19225000D02*
G75*
G02*
X140169000Y-21225000I-1999999J-1D01*
G01*
X146069000Y-23425000D02*
G75*
G02*
X144069000Y-25425000I-1999999J-1D01*
G01*
%TO.C,SW74*%
X318763000Y-97425000D02*
X313663000Y-97425000D01*
X322663000Y-101625000D02*
X317563000Y-101625000D01*
X320763000Y-95425000D02*
G75*
G02*
X318763000Y-97425000I-1999999J-1D01*
G01*
X324663000Y-99625000D02*
G75*
G02*
X322663000Y-101625000I-1999999J-1D01*
G01*
%TO.C,SW22*%
X209225000Y-97425000D02*
X204125000Y-97425000D01*
X213125000Y-101625000D02*
X208025000Y-101625000D01*
X211225000Y-95425000D02*
G75*
G02*
X209225000Y-97425000I-1999999J-1D01*
G01*
X215125000Y-99625000D02*
G75*
G02*
X213125000Y-101625000I-1999999J-1D01*
G01*
%TO.C,SW37*%
X237800000Y-78375000D02*
X232700000Y-78375000D01*
X241700000Y-82575000D02*
X236600000Y-82575000D01*
X239800000Y-76375000D02*
G75*
G02*
X237800000Y-78375000I-1999999J-1D01*
G01*
X243700000Y-80575000D02*
G75*
G02*
X241700000Y-82575000I-1999999J-1D01*
G01*
%TO.C,SW60*%
X175888000Y-40275000D02*
X170788000Y-40275000D01*
X179788000Y-44475000D02*
X174688000Y-44475000D01*
X177888000Y-38275000D02*
G75*
G02*
X175888000Y-40275000I-1999999J-1D01*
G01*
X181788000Y-42475000D02*
G75*
G02*
X179788000Y-44475000I-1999999J-1D01*
G01*
%TO.C,SW38*%
X256850000Y-78375000D02*
X251750000Y-78375000D01*
X260750000Y-82575000D02*
X255650000Y-82575000D01*
X258850000Y-76375000D02*
G75*
G02*
X256850000Y-78375000I-1999999J-1D01*
G01*
X262750000Y-80575000D02*
G75*
G02*
X260750000Y-82575000I-1999999J-1D01*
G01*
%TO.C,SW53*%
X30631000Y-40275000D02*
X25531000Y-40275000D01*
X34531000Y-44475000D02*
X29431000Y-44475000D01*
X32631000Y-38275000D02*
G75*
G02*
X30631000Y-40275000I-1999999J-1D01*
G01*
X36531000Y-42475000D02*
G75*
G02*
X34531000Y-44475000I-1999999J-1D01*
G01*
%TO.C,SW17*%
X113975000Y-97425000D02*
X108875000Y-97425000D01*
X117875000Y-101625000D02*
X112775000Y-101625000D01*
X115975000Y-95425000D02*
G75*
G02*
X113975000Y-97425000I-1999999J-1D01*
G01*
X119875000Y-99625000D02*
G75*
G02*
X117875000Y-101625000I-1999999J-1D01*
G01*
%TO.C,SW44*%
X109213000Y-59325000D02*
X104113000Y-59325000D01*
X113113000Y-63525000D02*
X108013000Y-63525000D01*
X111213000Y-57325000D02*
G75*
G02*
X109213000Y-59325000I-1999999J-1D01*
G01*
X115113000Y-61525000D02*
G75*
G02*
X113113000Y-63525000I-1999999J-1D01*
G01*
%TO.C,SW82*%
X318763000Y-21225000D02*
X313663000Y-21225000D01*
X322663000Y-25425000D02*
X317563000Y-25425000D01*
X320763000Y-19225000D02*
G75*
G02*
X318763000Y-21225000I-1999999J-1D01*
G01*
X324663000Y-23425000D02*
G75*
G02*
X322663000Y-25425000I-1999999J-1D01*
G01*
%TO.C,SW30*%
X104450000Y-78375000D02*
X99350000Y-78375000D01*
X108350000Y-82575000D02*
X103250000Y-82575000D01*
X106450000Y-76375000D02*
G75*
G02*
X104450000Y-78375000I-1999999J-1D01*
G01*
X110350000Y-80575000D02*
G75*
G02*
X108350000Y-82575000I-1999999J-1D01*
G01*
%TO.C,SW61*%
X194938000Y-40275000D02*
X189838000Y-40275000D01*
X198838000Y-44475000D02*
X193738000Y-44475000D01*
X196938000Y-38275000D02*
G75*
G02*
X194938000Y-40275000I-1999999J-1D01*
G01*
X200838000Y-42475000D02*
G75*
G02*
X198838000Y-44475000I-1999999J-1D01*
G01*
%TO.C,SW78*%
X318763000Y-59325000D02*
X313663000Y-59325000D01*
X322663000Y-63525000D02*
X317563000Y-63525000D01*
X320763000Y-57325000D02*
G75*
G02*
X318763000Y-59325000I-1999999J-1D01*
G01*
X324663000Y-61525000D02*
G75*
G02*
X322663000Y-63525000I-1999999J-1D01*
G01*
%TO.C,SW18*%
X133025000Y-97425000D02*
X127925000Y-97425000D01*
X136925000Y-101625000D02*
X131825000Y-101625000D01*
X135025000Y-95425000D02*
G75*
G02*
X133025000Y-97425000I-1999999J-1D01*
G01*
X138925000Y-99625000D02*
G75*
G02*
X136925000Y-101625000I-1999999J-1D01*
G01*
%TO.C,SW57*%
X118738000Y-40275000D02*
X113638000Y-40275000D01*
X122638000Y-44475000D02*
X117538000Y-44475000D01*
X120738000Y-38275000D02*
G75*
G02*
X118738000Y-40275000I-1999999J-1D01*
G01*
X124638000Y-42475000D02*
G75*
G02*
X122638000Y-44475000I-1999999J-1D01*
G01*
%TO.C,SW26*%
X23488000Y-78375000D02*
X18388000Y-78375000D01*
X27388000Y-82575000D02*
X22288000Y-82575000D01*
X25488000Y-76375000D02*
G75*
G02*
X23488000Y-78375000I-1999999J-1D01*
G01*
X29388000Y-80575000D02*
G75*
G02*
X27388000Y-82575000I-1999999J-1D01*
G01*
%TO.C,SW31*%
X123500000Y-78375000D02*
X118400000Y-78375000D01*
X127400000Y-82575000D02*
X122300000Y-82575000D01*
X125500000Y-76375000D02*
G75*
G02*
X123500000Y-78375000I-1999999J-1D01*
G01*
X129400000Y-80575000D02*
G75*
G02*
X127400000Y-82575000I-1999999J-1D01*
G01*
%TO.C,SW10*%
X266375000Y-121237000D02*
X261275000Y-121237000D01*
X270275000Y-125437000D02*
X265175000Y-125437000D01*
X268375000Y-119237000D02*
G75*
G02*
X266375000Y-121237000I-1999999J-1D01*
G01*
X272275000Y-123437000D02*
G75*
G02*
X270275000Y-125437000I-1999999J-1D01*
G01*
%TO.C,SW16*%
X94925000Y-97425000D02*
X89825000Y-97425000D01*
X98825000Y-101625000D02*
X93725000Y-101625000D01*
X96925000Y-95425000D02*
G75*
G02*
X94925000Y-97425000I-1999999J-1D01*
G01*
X100825000Y-99625000D02*
G75*
G02*
X98825000Y-101625000I-1999999J-1D01*
G01*
%TO.C,SW9*%
X247325000Y-121237000D02*
X242225000Y-121237000D01*
X251225000Y-125437000D02*
X246125000Y-125437000D01*
X249325000Y-119237000D02*
G75*
G02*
X247325000Y-121237000I-1999999J-1D01*
G01*
X253225000Y-123437000D02*
G75*
G02*
X251225000Y-125437000I-1999999J-1D01*
G01*
%TO.C,SW51*%
X242563000Y-59325000D02*
X237463000Y-59325000D01*
X246463000Y-63525000D02*
X241363000Y-63525000D01*
X244563000Y-57325000D02*
G75*
G02*
X242563000Y-59325000I-1999999J-1D01*
G01*
X248463000Y-61525000D02*
G75*
G02*
X246463000Y-63525000I-1999999J-1D01*
G01*
%TO.C,SW3*%
X113975000Y-121237000D02*
X108875000Y-121237000D01*
X117875000Y-125437000D02*
X112775000Y-125437000D01*
X115975000Y-119237000D02*
G75*
G02*
X113975000Y-121237000I-1999999J-1D01*
G01*
X119875000Y-123437000D02*
G75*
G02*
X117875000Y-125437000I-1999999J-1D01*
G01*
%TO.C,SW64*%
X259231000Y-40275000D02*
X254131000Y-40275000D01*
X263131000Y-44475000D02*
X258031000Y-44475000D01*
X261231000Y-38275000D02*
G75*
G02*
X259231000Y-40275000I-1999999J-1D01*
G01*
X265131000Y-42475000D02*
G75*
G02*
X263131000Y-44475000I-1999999J-1D01*
G01*
%TO.C,SW2*%
X94925000Y-121237000D02*
X89825000Y-121237000D01*
X98825000Y-125437000D02*
X93725000Y-125437000D01*
X96925000Y-119237000D02*
G75*
G02*
X94925000Y-121237000I-1999999J-1D01*
G01*
X100825000Y-123437000D02*
G75*
G02*
X98825000Y-125437000I-1999999J-1D01*
G01*
%TO.C,SW67*%
X68731000Y-21225000D02*
X63631000Y-21225000D01*
X72631000Y-25425000D02*
X67531000Y-25425000D01*
X70731000Y-19225000D02*
G75*
G02*
X68731000Y-21225000I-1999999J-1D01*
G01*
X74631000Y-23425000D02*
G75*
G02*
X72631000Y-25425000I-1999999J-1D01*
G01*
%TO.C,SW8*%
X228275000Y-121237000D02*
X223175000Y-121237000D01*
X232175000Y-125437000D02*
X227075000Y-125437000D01*
X230275000Y-119237000D02*
G75*
G02*
X228275000Y-121237000I-1999999J-1D01*
G01*
X234175000Y-123437000D02*
G75*
G02*
X232175000Y-125437000I-1999999J-1D01*
G01*
%TO.C,SW27*%
X47300000Y-78375000D02*
X42200000Y-78375000D01*
X51200000Y-82575000D02*
X46100000Y-82575000D01*
X49300000Y-76375000D02*
G75*
G02*
X47300000Y-78375000I-1999999J-1D01*
G01*
X53200000Y-80575000D02*
G75*
G02*
X51200000Y-82575000I-1999999J-1D01*
G01*
%TO.C,SW33*%
X161600000Y-78375000D02*
X156500000Y-78375000D01*
X165500000Y-82575000D02*
X160400000Y-82575000D01*
X163600000Y-76375000D02*
G75*
G02*
X161600000Y-78375000I-1999999J-1D01*
G01*
X167500000Y-80575000D02*
G75*
G02*
X165500000Y-82575000I-1999999J-1D01*
G01*
%TO.C,SW5*%
X161600000Y-121237000D02*
X156500000Y-121237000D01*
X165500000Y-125437000D02*
X160400000Y-125437000D01*
X163600000Y-119237000D02*
G75*
G02*
X161600000Y-121237000I-1999999J-1D01*
G01*
X167500000Y-123437000D02*
G75*
G02*
X165500000Y-125437000I-1999999J-1D01*
G01*
%TO.C,SW65*%
X21106000Y-21225000D02*
X16006000Y-21225000D01*
X25006000Y-25425000D02*
X19906000Y-25425000D01*
X23106000Y-19225000D02*
G75*
G02*
X21106000Y-21225000I-1999999J-1D01*
G01*
X27006000Y-23425000D02*
G75*
G02*
X25006000Y-25425000I-1999999J-1D01*
G01*
%TO.C,SW29*%
X85400000Y-78375000D02*
X80300000Y-78375000D01*
X89300000Y-82575000D02*
X84200000Y-82575000D01*
X87400000Y-76375000D02*
G75*
G02*
X85400000Y-78375000I-1999999J-1D01*
G01*
X91300000Y-80575000D02*
G75*
G02*
X89300000Y-82575000I-1999999J-1D01*
G01*
%TO.C,SW48*%
X185413000Y-59325000D02*
X180313000Y-59325000D01*
X189313000Y-63525000D02*
X184213000Y-63525000D01*
X187413000Y-57325000D02*
G75*
G02*
X185413000Y-59325000I-1999999J-1D01*
G01*
X191313000Y-61525000D02*
G75*
G02*
X189313000Y-63525000I-1999999J-1D01*
G01*
%TO.C,SW21*%
X190175000Y-97425000D02*
X185075000Y-97425000D01*
X194075000Y-101625000D02*
X188975000Y-101625000D01*
X192175000Y-95425000D02*
G75*
G02*
X190175000Y-97425000I-1999999J-1D01*
G01*
X196075000Y-99625000D02*
G75*
G02*
X194075000Y-101625000I-1999999J-1D01*
G01*
%TO.C,SW52*%
X273519000Y-59325000D02*
X268419000Y-59325000D01*
X277419000Y-63525000D02*
X272319000Y-63525000D01*
X275519000Y-57325000D02*
G75*
G02*
X273519000Y-59325000I-1999999J-1D01*
G01*
X279419000Y-61525000D02*
G75*
G02*
X277419000Y-63525000I-1999999J-1D01*
G01*
%TO.C,SW66*%
X44919000Y-21225000D02*
X39819000Y-21225000D01*
X48819000Y-25425000D02*
X43719000Y-25425000D01*
X46919000Y-19225000D02*
G75*
G02*
X44919000Y-21225000I-1999999J-1D01*
G01*
X50819000Y-23425000D02*
G75*
G02*
X48819000Y-25425000I-1999999J-1D01*
G01*
%TO.C,SW58*%
X137788000Y-40275000D02*
X132688000Y-40275000D01*
X141688000Y-44475000D02*
X136588000Y-44475000D01*
X139788000Y-38275000D02*
G75*
G02*
X137788000Y-40275000I-1999999J-1D01*
G01*
X143688000Y-42475000D02*
G75*
G02*
X141688000Y-44475000I-1999999J-1D01*
G01*
%TO.C,SW75*%
X299712000Y-78375000D02*
X294612000Y-78375000D01*
X303612000Y-82575000D02*
X298512000Y-82575000D01*
X301712000Y-76375000D02*
G75*
G02*
X299712000Y-78375000I-1999999J-1D01*
G01*
X305612000Y-80575000D02*
G75*
G02*
X303612000Y-82575000I-1999999J-1D01*
G01*
%TO.C,SW72*%
X318763000Y-121237000D02*
X313663000Y-121237000D01*
X322663000Y-125437000D02*
X317563000Y-125437000D01*
X320763000Y-119237000D02*
G75*
G02*
X318763000Y-121237000I-1999999J-1D01*
G01*
X324663000Y-123437000D02*
G75*
G02*
X322663000Y-125437000I-1999999J-1D01*
G01*
%TO.C,SW80*%
X280663000Y-21225000D02*
X275563000Y-21225000D01*
X284563000Y-25425000D02*
X279463000Y-25425000D01*
X282663000Y-19225000D02*
G75*
G02*
X280663000Y-21225000I-1999999J-1D01*
G01*
X286563000Y-23425000D02*
G75*
G02*
X284563000Y-25425000I-1999999J-1D01*
G01*
%TO.C,SW81*%
X299712000Y-21225000D02*
X294612000Y-21225000D01*
X303612000Y-25425000D02*
X298512000Y-25425000D01*
X301712000Y-19225000D02*
G75*
G02*
X299712000Y-21225000I-1999999J-1D01*
G01*
X305612000Y-23425000D02*
G75*
G02*
X303612000Y-25425000I-1999999J-1D01*
G01*
%TO.C,SW23*%
X228275000Y-97425000D02*
X223175000Y-97425000D01*
X232175000Y-101625000D02*
X227075000Y-101625000D01*
X230275000Y-95425000D02*
G75*
G02*
X228275000Y-97425000I-1999999J-1D01*
G01*
X234175000Y-99625000D02*
G75*
G02*
X232175000Y-101625000I-1999999J-1D01*
G01*
%TO.C,SW42*%
X71112000Y-59325000D02*
X66012000Y-59325000D01*
X75012000Y-63525000D02*
X69912000Y-63525000D01*
X73112000Y-57325000D02*
G75*
G02*
X71112000Y-59325000I-1999999J-1D01*
G01*
X77012000Y-61525000D02*
G75*
G02*
X75012000Y-63525000I-1999999J-1D01*
G01*
%TO.C,SW34*%
X180650000Y-78375000D02*
X175550000Y-78375000D01*
X184550000Y-82575000D02*
X179450000Y-82575000D01*
X182650000Y-76375000D02*
G75*
G02*
X180650000Y-78375000I-1999999J-1D01*
G01*
X186550000Y-80575000D02*
G75*
G02*
X184550000Y-82575000I-1999999J-1D01*
G01*
%TO.C,SW4*%
X142550000Y-121237000D02*
X137450000Y-121237000D01*
X146450000Y-125437000D02*
X141350000Y-125437000D01*
X144550000Y-119237000D02*
G75*
G02*
X142550000Y-121237000I-1999999J-1D01*
G01*
X148450000Y-123437000D02*
G75*
G02*
X146450000Y-125437000I-1999999J-1D01*
G01*
%TO.C,SW62*%
X213987000Y-40275000D02*
X208887000Y-40275000D01*
X217887000Y-44475000D02*
X212787000Y-44475000D01*
X215987000Y-38275000D02*
G75*
G02*
X213987000Y-40275000I-1999999J-1D01*
G01*
X219887000Y-42475000D02*
G75*
G02*
X217887000Y-44475000I-1999999J-1D01*
G01*
%TO.C,SW73*%
X299712000Y-97425000D02*
X294612000Y-97425000D01*
X303612000Y-101625000D02*
X298512000Y-101625000D01*
X301712000Y-95425000D02*
G75*
G02*
X299712000Y-97425000I-1999999J-1D01*
G01*
X305612000Y-99625000D02*
G75*
G02*
X303612000Y-101625000I-1999999J-1D01*
G01*
%TO.C,SW49*%
X204463000Y-59325000D02*
X199363000Y-59325000D01*
X208363000Y-63525000D02*
X203263000Y-63525000D01*
X206463000Y-57325000D02*
G75*
G02*
X204463000Y-59325000I-1999999J-1D01*
G01*
X210363000Y-61525000D02*
G75*
G02*
X208363000Y-63525000I-1999999J-1D01*
G01*
%TO.C,SW76*%
X318763000Y-78375000D02*
X313663000Y-78375000D01*
X322663000Y-82575000D02*
X317563000Y-82575000D01*
X320763000Y-76375000D02*
G75*
G02*
X318763000Y-78375000I-1999999J-1D01*
G01*
X324663000Y-80575000D02*
G75*
G02*
X322663000Y-82575000I-1999999J-1D01*
G01*
%TO.C,SW47*%
X166362000Y-59325000D02*
X161262000Y-59325000D01*
X170262000Y-63525000D02*
X165162000Y-63525000D01*
X168362000Y-57325000D02*
G75*
G02*
X166362000Y-59325000I-1999999J-1D01*
G01*
X172262000Y-61525000D02*
G75*
G02*
X170262000Y-63525000I-1999999J-1D01*
G01*
%TO.C,SW36*%
X218750000Y-78375000D02*
X213650000Y-78375000D01*
X222650000Y-82575000D02*
X217550000Y-82575000D01*
X220750000Y-76375000D02*
G75*
G02*
X218750000Y-78375000I-1999999J-1D01*
G01*
X224650000Y-80575000D02*
G75*
G02*
X222650000Y-82575000I-1999999J-1D01*
G01*
%TO.C,SW39*%
X280663000Y-78375000D02*
X275563000Y-78375000D01*
X284563000Y-82575000D02*
X279463000Y-82575000D01*
X282663000Y-76375000D02*
G75*
G02*
X280663000Y-78375000I-1999999J-1D01*
G01*
X286563000Y-80575000D02*
G75*
G02*
X284563000Y-82575000I-1999999J-1D01*
G01*
%TO.C,SW35*%
X199700000Y-78375000D02*
X194600000Y-78375000D01*
X203600000Y-82575000D02*
X198500000Y-82575000D01*
X201700000Y-76375000D02*
G75*
G02*
X199700000Y-78375000I-1999999J-1D01*
G01*
X205600000Y-80575000D02*
G75*
G02*
X203600000Y-82575000I-1999999J-1D01*
G01*
%TO.C,SW71*%
X259231000Y-21225000D02*
X254131000Y-21225000D01*
X263131000Y-25425000D02*
X258031000Y-25425000D01*
X261231000Y-19225000D02*
G75*
G02*
X259231000Y-21225000I-1999999J-1D01*
G01*
X265131000Y-23425000D02*
G75*
G02*
X263131000Y-25425000I-1999999J-1D01*
G01*
%TO.C,SW46*%
X147313000Y-59325000D02*
X142213000Y-59325000D01*
X151213000Y-63525000D02*
X146113000Y-63525000D01*
X149313000Y-57325000D02*
G75*
G02*
X147313000Y-59325000I-1999999J-1D01*
G01*
X153213000Y-61525000D02*
G75*
G02*
X151213000Y-63525000I-1999999J-1D01*
G01*
%TO.C,SW15*%
X75875000Y-97425000D02*
X70775000Y-97425000D01*
X79775000Y-101625000D02*
X74675000Y-101625000D01*
X77875000Y-95425000D02*
G75*
G02*
X75875000Y-97425000I-1999999J-1D01*
G01*
X81775000Y-99625000D02*
G75*
G02*
X79775000Y-101625000I-1999999J-1D01*
G01*
%TO.C,SW79*%
X299712000Y-40275000D02*
X294612000Y-40275000D01*
X303612000Y-44475000D02*
X298512000Y-44475000D01*
X301712000Y-38275000D02*
G75*
G02*
X299712000Y-40275000I-1999999J-1D01*
G01*
X305612000Y-42475000D02*
G75*
G02*
X303612000Y-44475000I-1999999J-1D01*
G01*
%TO.C,SW28*%
X66350000Y-78375000D02*
X61250000Y-78375000D01*
X70250000Y-82575000D02*
X65150000Y-82575000D01*
X68350000Y-76375000D02*
G75*
G02*
X66350000Y-78375000I-1999999J-1D01*
G01*
X72250000Y-80575000D02*
G75*
G02*
X70250000Y-82575000I-1999999J-1D01*
G01*
%TO.C,SW43*%
X90163000Y-59325000D02*
X85063000Y-59325000D01*
X94063000Y-63525000D02*
X88963000Y-63525000D01*
X92163000Y-57325000D02*
G75*
G02*
X90163000Y-59325000I-1999999J-1D01*
G01*
X96063000Y-61525000D02*
G75*
G02*
X94063000Y-63525000I-1999999J-1D01*
G01*
%TO.C,SW32*%
X142550000Y-78375000D02*
X137450000Y-78375000D01*
X146450000Y-82575000D02*
X141350000Y-82575000D01*
X144550000Y-76375000D02*
G75*
G02*
X142550000Y-78375000I-1999999J-1D01*
G01*
X148450000Y-80575000D02*
G75*
G02*
X146450000Y-82575000I-1999999J-1D01*
G01*
%TO.C,SW19*%
X152075000Y-97425000D02*
X146975000Y-97425000D01*
X155975000Y-101625000D02*
X150875000Y-101625000D01*
X154075000Y-95425000D02*
G75*
G02*
X152075000Y-97425000I-1999999J-1D01*
G01*
X157975000Y-99625000D02*
G75*
G02*
X155975000Y-101625000I-1999999J-1D01*
G01*
%TO.C,SW11*%
X285425000Y-121237000D02*
X280325000Y-121237000D01*
X289325000Y-125437000D02*
X284225000Y-125437000D01*
X287425000Y-119237000D02*
G75*
G02*
X285425000Y-121237000I-1999999J-1D01*
G01*
X291325000Y-123437000D02*
G75*
G02*
X289325000Y-125437000I-1999999J-1D01*
G01*
%TO.C,SW13*%
X37775000Y-97425000D02*
X32675000Y-97425000D01*
X41675000Y-101625000D02*
X36575000Y-101625000D01*
X39775000Y-95425000D02*
G75*
G02*
X37775000Y-97425000I-1999999J-1D01*
G01*
X43675000Y-99625000D02*
G75*
G02*
X41675000Y-101625000I-1999999J-1D01*
G01*
%TO.C,SW69*%
X211606000Y-21225000D02*
X206506000Y-21225000D01*
X215506000Y-25425000D02*
X210406000Y-25425000D01*
X213606000Y-19225000D02*
G75*
G02*
X211606000Y-21225000I-1999999J-1D01*
G01*
X217506000Y-23425000D02*
G75*
G02*
X215506000Y-25425000I-1999999J-1D01*
G01*
%TO.C,SW55*%
X80638000Y-40275000D02*
X75538000Y-40275000D01*
X84538000Y-44475000D02*
X79438000Y-44475000D01*
X82638000Y-38275000D02*
G75*
G02*
X80638000Y-40275000I-1999999J-1D01*
G01*
X86538000Y-42475000D02*
G75*
G02*
X84538000Y-44475000I-1999999J-1D01*
G01*
%TO.C,SW50*%
X223513000Y-59325000D02*
X218413000Y-59325000D01*
X227413000Y-63525000D02*
X222313000Y-63525000D01*
X225513000Y-57325000D02*
G75*
G02*
X223513000Y-59325000I-1999999J-1D01*
G01*
X229413000Y-61525000D02*
G75*
G02*
X227413000Y-63525000I-1999999J-1D01*
G01*
%TO.C,SW7*%
X199700000Y-121237000D02*
X194600000Y-121237000D01*
X203600000Y-125437000D02*
X198500000Y-125437000D01*
X201700000Y-119237000D02*
G75*
G02*
X199700000Y-121237000I-1999999J-1D01*
G01*
X205600000Y-123437000D02*
G75*
G02*
X203600000Y-125437000I-1999999J-1D01*
G01*
%TO.C,SW20*%
X171125000Y-97425000D02*
X166025000Y-97425000D01*
X175025000Y-101625000D02*
X169925000Y-101625000D01*
X173125000Y-95425000D02*
G75*
G02*
X171125000Y-97425000I-1999999J-1D01*
G01*
X177025000Y-99625000D02*
G75*
G02*
X175025000Y-101625000I-1999999J-1D01*
G01*
%TO.C,SW54*%
X61588000Y-40275000D02*
X56488000Y-40275000D01*
X65488000Y-44475000D02*
X60388000Y-44475000D01*
X63588000Y-38275000D02*
G75*
G02*
X61588000Y-40275000I-1999999J-1D01*
G01*
X67488000Y-42475000D02*
G75*
G02*
X65488000Y-44475000I-1999999J-1D01*
G01*
%TO.C,SW59*%
X156838000Y-40275000D02*
X151738000Y-40275000D01*
X160738000Y-44475000D02*
X155638000Y-44475000D01*
X158838000Y-38275000D02*
G75*
G02*
X156838000Y-40275000I-1999999J-1D01*
G01*
X162738000Y-42475000D02*
G75*
G02*
X160738000Y-44475000I-1999999J-1D01*
G01*
%TO.C,SW56*%
X99687000Y-40275000D02*
X94587000Y-40275000D01*
X103587000Y-44475000D02*
X98487000Y-44475000D01*
X101687000Y-38275000D02*
G75*
G02*
X99687000Y-40275000I-1999999J-1D01*
G01*
X105587000Y-42475000D02*
G75*
G02*
X103587000Y-44475000I-1999999J-1D01*
G01*
%TO.C,SW70*%
X235419000Y-21225000D02*
X230319000Y-21225000D01*
X239319000Y-25425000D02*
X234219000Y-25425000D01*
X237419000Y-19225000D02*
G75*
G02*
X235419000Y-21225000I-1999999J-1D01*
G01*
X241319000Y-23425000D02*
G75*
G02*
X239319000Y-25425000I-1999999J-1D01*
G01*
%TO.C,SW63*%
X233038000Y-40275000D02*
X227938000Y-40275000D01*
X236938000Y-44475000D02*
X231838000Y-44475000D01*
X235038000Y-38275000D02*
G75*
G02*
X233038000Y-40275000I-1999999J-1D01*
G01*
X238938000Y-42475000D02*
G75*
G02*
X236938000Y-44475000I-1999999J-1D01*
G01*
%TO.C,SW77*%
X299712000Y-59325000D02*
X294612000Y-59325000D01*
X303612000Y-63525000D02*
X298512000Y-63525000D01*
X301712000Y-57325000D02*
G75*
G02*
X299712000Y-59325000I-1999999J-1D01*
G01*
X305612000Y-61525000D02*
G75*
G02*
X303612000Y-63525000I-1999999J-1D01*
G01*
%TO.C,SW24*%
X247325000Y-97425000D02*
X242225000Y-97425000D01*
X251225000Y-101625000D02*
X246125000Y-101625000D01*
X249325000Y-95425000D02*
G75*
G02*
X247325000Y-97425000I-1999999J-1D01*
G01*
X253225000Y-99625000D02*
G75*
G02*
X251225000Y-101625000I-1999999J-1D01*
G01*
%TO.C,SW40*%
X25869000Y-59325000D02*
X20769000Y-59325000D01*
X29769000Y-63525000D02*
X24669000Y-63525000D01*
X27869000Y-57325000D02*
G75*
G02*
X25869000Y-59325000I-1999999J-1D01*
G01*
X31769000Y-61525000D02*
G75*
G02*
X29769000Y-63525000I-1999999J-1D01*
G01*
%TO.C,SW41*%
X52063000Y-59325000D02*
X46963000Y-59325000D01*
X55963000Y-63525000D02*
X50863000Y-63525000D01*
X54063000Y-57325000D02*
G75*
G02*
X52063000Y-59325000I-1999999J-1D01*
G01*
X57963000Y-61525000D02*
G75*
G02*
X55963000Y-63525000I-1999999J-1D01*
G01*
%TO.C,SW1*%
X75875000Y-121237000D02*
X70775000Y-121237000D01*
X79775000Y-125437000D02*
X74675000Y-125437000D01*
X77875000Y-119237000D02*
G75*
G02*
X75875000Y-121237000I-1999999J-1D01*
G01*
X81775000Y-123437000D02*
G75*
G02*
X79775000Y-125437000I-1999999J-1D01*
G01*
%TO.C,SW6*%
X180650000Y-121237000D02*
X175550000Y-121237000D01*
X184550000Y-125437000D02*
X179450000Y-125437000D01*
X182650000Y-119237000D02*
G75*
G02*
X180650000Y-121237000I-1999999J-1D01*
G01*
X186550000Y-123437000D02*
G75*
G02*
X184550000Y-125437000I-1999999J-1D01*
G01*
%TO.C,SW14*%
X56825000Y-97425000D02*
X51725000Y-97425000D01*
X60725000Y-101625000D02*
X55625000Y-101625000D01*
X58825000Y-95425000D02*
G75*
G02*
X56825000Y-97425000I-1999999J-1D01*
G01*
X62725000Y-99625000D02*
G75*
G02*
X60725000Y-101625000I-1999999J-1D01*
G01*
%TO.C,SW25*%
X275900000Y-97425000D02*
X270800000Y-97425000D01*
X279800000Y-101625000D02*
X274700000Y-101625000D01*
X277900000Y-95425000D02*
G75*
G02*
X275900000Y-97425000I-1999999J-1D01*
G01*
X281800000Y-99625000D02*
G75*
G02*
X279800000Y-101625000I-1999999J-1D01*
G01*
%TO.C,SW45*%
X128263000Y-59325000D02*
X123163000Y-59325000D01*
X132163000Y-63525000D02*
X127063000Y-63525000D01*
X130263000Y-57325000D02*
G75*
G02*
X128263000Y-59325000I-1999999J-1D01*
G01*
X134163000Y-61525000D02*
G75*
G02*
X132163000Y-63525000I-1999999J-1D01*
G01*
%TD*%
M02*
