%TF.GenerationSoftware,KiCad,Pcbnew,10.0.3*%
%TF.CreationDate,2026-06-10T13:14:35-07:00*%
%TF.ProjectId,oso75,6f736f37-352e-46b6-9963-61645f706362,rev?*%
%TF.SameCoordinates,Original*%
%TF.FileFunction,Soldermask,Top*%
%TF.FilePolarity,Negative*%
%FSLAX46Y46*%
G04 Gerber Fmt 4.6, Leading zero omitted, Abs format (unit mm)*
G04 Created by KiCad (PCBNEW 10.0.3) date 2026-06-10 13:14:35*
%MOMM*%
%LPD*%
G01*
G04 APERTURE LIST*
G04 Aperture macros list*
%AMRoundRect*
0 Rectangle with rounded corners*
0 $1 Rounding radius*
0 $2 $3 $4 $5 $6 $7 $8 $9 X,Y pos of 4 corners*
0 Add a 4 corners polygon primitive as box body*
4,1,4,$2,$3,$4,$5,$6,$7,$8,$9,$2,$3,0*
0 Add four circle primitives for the rounded corners*
1,1,$1+$1,$2,$3*
1,1,$1+$1,$4,$5*
1,1,$1+$1,$6,$7*
1,1,$1+$1,$8,$9*
0 Add four rect primitives between the rounded corners*
20,1,$1+$1,$2,$3,$4,$5,0*
20,1,$1+$1,$4,$5,$6,$7,0*
20,1,$1+$1,$6,$7,$8,$9,0*
20,1,$1+$1,$8,$9,$2,$3,0*%
G04 Aperture macros list end*
%ADD10RoundRect,0.260000X-0.390000X-0.540000X0.390000X-0.540000X0.390000X0.540000X-0.390000X0.540000X0*%
%ADD11RoundRect,0.180000X-0.270000X-0.320000X0.270000X-0.320000X0.270000X0.320000X-0.270000X0.320000X0*%
%ADD12C,1.850000*%
%ADD13C,4.100000*%
%ADD14C,3.700000*%
%ADD15RoundRect,0.260000X-0.390000X-0.640000X0.390000X-0.640000X0.390000X0.640000X-0.390000X0.640000X0*%
%ADD16C,0.750000*%
%ADD17RoundRect,0.175000X-0.175000X-0.600000X0.175000X-0.600000X0.175000X0.600000X-0.175000X0.600000X0*%
%ADD18RoundRect,0.100000X-0.100000X-0.675000X0.100000X-0.675000X0.100000X0.675000X-0.100000X0.675000X0*%
%ADD19O,1.100000X2.200000*%
%ADD20O,1.100000X1.700000*%
%ADD21RoundRect,0.130000X-0.245000X-0.195000X0.245000X-0.195000X0.245000X0.195000X-0.245000X0.195000X0*%
%ADD22RoundRect,0.050000X-0.450000X0.750000X-0.450000X-0.750000X0.450000X-0.750000X0.450000X0.750000X0*%
%ADD23RoundRect,0.050000X0.450000X-0.750000X0.450000X0.750000X-0.450000X0.750000X-0.450000X-0.750000X0*%
%ADD24RoundRect,0.050000X0.750000X0.450000X-0.750000X0.450000X-0.750000X-0.450000X0.750000X-0.450000X0*%
%ADD25C,0.700000*%
%ADD26RoundRect,0.050000X1.950000X1.950000X-1.950000X1.950000X-1.950000X-1.950000X1.950000X-1.950000X0*%
%ADD27C,3.148000*%
%ADD28C,4.087800*%
%ADD29RoundRect,0.414000X-0.736000X-2.136000X0.736000X-2.136000X0.736000X2.136000X-0.736000X2.136000X0*%
G04 APERTURE END LIST*
D10*
%TO.C,D12*%
X26675000Y-101225000D03*
X23375000Y-101225000D03*
%TD*%
D11*
%TO.C,C3*%
X177200000Y-130500000D03*
X178800000Y-130500000D03*
%TD*%
D12*
%TO.C,SW12*%
X23605000Y-94725000D03*
D13*
X18525000Y-94725000D03*
D12*
X13445000Y-94725000D03*
D14*
X22335000Y-97265000D03*
X15985000Y-99805000D03*
%TD*%
D12*
%TO.C,SW68*%
X145049000Y-18525000D03*
D13*
X139969000Y-18525000D03*
D12*
X134889000Y-18525000D03*
D14*
X143779000Y-21065000D03*
X137429000Y-23605000D03*
%TD*%
D12*
%TO.C,SW74*%
X323643000Y-94725000D03*
D13*
X318563000Y-94725000D03*
D12*
X313483000Y-94725000D03*
D14*
X322373000Y-97265000D03*
X316023000Y-99805000D03*
%TD*%
D12*
%TO.C,SW22*%
X214105000Y-94725000D03*
D13*
X209025000Y-94725000D03*
D12*
X203945000Y-94725000D03*
D14*
X212835000Y-97265000D03*
X206485000Y-99805000D03*
%TD*%
D11*
%TO.C,C_EN*%
X91800000Y-141000000D03*
X93400000Y-141000000D03*
%TD*%
D12*
%TO.C,SW37*%
X242680000Y-75675000D03*
D13*
X237600000Y-75675000D03*
D12*
X232520000Y-75675000D03*
D14*
X241410000Y-78215000D03*
X235060000Y-80755000D03*
%TD*%
D12*
%TO.C,SW60*%
X180768000Y-37575000D03*
D13*
X175688000Y-37575000D03*
D12*
X170608000Y-37575000D03*
D14*
X179498000Y-40115000D03*
X173148000Y-42655000D03*
%TD*%
D12*
%TO.C,SW38*%
X261730000Y-75675000D03*
D13*
X256650000Y-75675000D03*
D12*
X251570000Y-75675000D03*
D14*
X260460000Y-78215000D03*
X254110000Y-80755000D03*
%TD*%
D10*
%TO.C,D75*%
X307662000Y-82175000D03*
X304362000Y-82175000D03*
%TD*%
%TO.C,D28*%
X74300000Y-82175000D03*
X71000000Y-82175000D03*
%TD*%
D15*
%TO.C,SW_RESET*%
X91800000Y-138000000D03*
X95200000Y-138000000D03*
%TD*%
D10*
%TO.C,D14*%
X64775000Y-101225000D03*
X61475000Y-101225000D03*
%TD*%
D12*
%TO.C,SW53*%
X35511000Y-37575000D03*
D13*
X30431000Y-37575000D03*
D12*
X25351000Y-37575000D03*
D14*
X34241000Y-40115000D03*
X27891000Y-42655000D03*
%TD*%
D12*
%TO.C,SW17*%
X118855000Y-94725000D03*
D13*
X113775000Y-94725000D03*
D12*
X108695000Y-94725000D03*
D14*
X117585000Y-97265000D03*
X111235000Y-99805000D03*
%TD*%
D12*
%TO.C,SW44*%
X114093000Y-56625000D03*
D13*
X109013000Y-56625000D03*
D12*
X103933000Y-56625000D03*
D14*
X112823000Y-59165000D03*
X106473000Y-61705000D03*
%TD*%
D12*
%TO.C,SW82*%
X323643000Y-18525000D03*
D13*
X318563000Y-18525000D03*
D12*
X313483000Y-18525000D03*
D14*
X322373000Y-21065000D03*
X316023000Y-23605000D03*
%TD*%
D10*
%TO.C,D25*%
X283850000Y-101225000D03*
X280550000Y-101225000D03*
%TD*%
%TO.C,D65*%
X29056000Y-25025000D03*
X25756000Y-25025000D03*
%TD*%
%TO.C,D37*%
X245750000Y-82175000D03*
X242450000Y-82175000D03*
%TD*%
%TO.C,D80*%
X288613000Y-25025000D03*
X285313000Y-25025000D03*
%TD*%
D12*
%TO.C,SW30*%
X109330000Y-75675000D03*
D13*
X104250000Y-75675000D03*
D12*
X99170000Y-75675000D03*
D14*
X108060000Y-78215000D03*
X101710000Y-80755000D03*
%TD*%
D12*
%TO.C,SW61*%
X199818000Y-37575000D03*
D13*
X194738000Y-37575000D03*
D12*
X189658000Y-37575000D03*
D14*
X198548000Y-40115000D03*
X192198000Y-42655000D03*
%TD*%
D16*
%TO.C,J1*%
X165650000Y-145060000D03*
X171430000Y-145060000D03*
D17*
X165290000Y-143615000D03*
X166090000Y-143615000D03*
D18*
X167290000Y-143615000D03*
X168290000Y-143615000D03*
X168790000Y-143615000D03*
X169790000Y-143615000D03*
D17*
X170990000Y-143615000D03*
X171790000Y-143615000D03*
X171790000Y-143615000D03*
X170990000Y-143615000D03*
D18*
X170290000Y-143615000D03*
X169290000Y-143615000D03*
X167790000Y-143615000D03*
X166790000Y-143615000D03*
D17*
X166090000Y-143615000D03*
X165290000Y-143615000D03*
D19*
X164220000Y-144530000D03*
D20*
X164220000Y-148710000D03*
D19*
X172860000Y-144530000D03*
D20*
X172860000Y-148710000D03*
%TD*%
D12*
%TO.C,SW78*%
X323643000Y-56625000D03*
D13*
X318563000Y-56625000D03*
D12*
X313483000Y-56625000D03*
D14*
X322373000Y-59165000D03*
X316023000Y-61705000D03*
%TD*%
D10*
%TO.C,D6*%
X188600000Y-125037000D03*
X185300000Y-125037000D03*
%TD*%
D12*
%TO.C,SW18*%
X137905000Y-94725000D03*
D13*
X132825000Y-94725000D03*
D12*
X127745000Y-94725000D03*
D14*
X136635000Y-97265000D03*
X130285000Y-99805000D03*
%TD*%
D12*
%TO.C,SW57*%
X123618000Y-37575000D03*
D13*
X118538000Y-37575000D03*
D12*
X113458000Y-37575000D03*
D14*
X122348000Y-40115000D03*
X115998000Y-42655000D03*
%TD*%
D12*
%TO.C,SW26*%
X28368000Y-75675000D03*
D13*
X23288000Y-75675000D03*
D12*
X18208000Y-75675000D03*
D14*
X27098000Y-78215000D03*
X20748000Y-80755000D03*
%TD*%
D10*
%TO.C,D26*%
X31438000Y-82175000D03*
X28138000Y-82175000D03*
%TD*%
%TO.C,D45*%
X136213000Y-63125000D03*
X132913000Y-63125000D03*
%TD*%
D11*
%TO.C,R2*%
X178700000Y-144000000D03*
X180300000Y-144000000D03*
%TD*%
D10*
%TO.C,D22*%
X217175000Y-101225000D03*
X213875000Y-101225000D03*
%TD*%
%TO.C,D21*%
X198125000Y-101225000D03*
X194825000Y-101225000D03*
%TD*%
D12*
%TO.C,SW31*%
X128380000Y-75675000D03*
D13*
X123300000Y-75675000D03*
D12*
X118220000Y-75675000D03*
D14*
X127110000Y-78215000D03*
X120760000Y-80755000D03*
%TD*%
D10*
%TO.C,D55*%
X88588000Y-44075000D03*
X85288000Y-44075000D03*
%TD*%
%TO.C,D33*%
X169550000Y-82175000D03*
X166250000Y-82175000D03*
%TD*%
D12*
%TO.C,SW10*%
X271255000Y-118537000D03*
D13*
X266175000Y-118537000D03*
D12*
X261095000Y-118537000D03*
D14*
X269985000Y-121077000D03*
X263635000Y-123617000D03*
%TD*%
D12*
%TO.C,SW16*%
X99805000Y-94725000D03*
D13*
X94725000Y-94725000D03*
D12*
X89645000Y-94725000D03*
D14*
X98535000Y-97265000D03*
X92185000Y-99805000D03*
%TD*%
D11*
%TO.C,R4*%
X156700000Y-141500000D03*
X158300000Y-141500000D03*
%TD*%
D12*
%TO.C,SW9*%
X252205000Y-118537000D03*
D13*
X247125000Y-118537000D03*
D12*
X242045000Y-118537000D03*
D14*
X250935000Y-121077000D03*
X244585000Y-123617000D03*
%TD*%
D10*
%TO.C,D58*%
X145738000Y-44075000D03*
X142438000Y-44075000D03*
%TD*%
D12*
%TO.C,SW51*%
X247443000Y-56625000D03*
D13*
X242363000Y-56625000D03*
D12*
X237283000Y-56625000D03*
D14*
X246173000Y-59165000D03*
X239823000Y-61705000D03*
%TD*%
D12*
%TO.C,SW3*%
X118855000Y-118537000D03*
D13*
X113775000Y-118537000D03*
D12*
X108695000Y-118537000D03*
D14*
X117585000Y-121077000D03*
X111235000Y-123617000D03*
%TD*%
D10*
%TO.C,D31*%
X131450000Y-82175000D03*
X128150000Y-82175000D03*
%TD*%
D12*
%TO.C,SW64*%
X264111000Y-37575000D03*
D13*
X259031000Y-37575000D03*
D12*
X253951000Y-37575000D03*
D14*
X262841000Y-40115000D03*
X256491000Y-42655000D03*
%TD*%
D12*
%TO.C,SW2*%
X99805000Y-118537000D03*
D13*
X94725000Y-118537000D03*
D12*
X89645000Y-118537000D03*
D14*
X98535000Y-121077000D03*
X92185000Y-123617000D03*
%TD*%
D12*
%TO.C,SW67*%
X73611000Y-18525000D03*
D13*
X68531000Y-18525000D03*
D12*
X63451000Y-18525000D03*
D14*
X72341000Y-21065000D03*
X65991000Y-23605000D03*
%TD*%
D15*
%TO.C,SW_BOOT*%
X99800000Y-138000000D03*
X103200000Y-138000000D03*
%TD*%
D11*
%TO.C,C4*%
X180200000Y-142500000D03*
X181800000Y-142500000D03*
%TD*%
D21*
%TO.C,U3*%
X145900000Y-143550000D03*
X145900000Y-144500000D03*
X145900000Y-145450000D03*
X148100000Y-145450000D03*
X148100000Y-143550000D03*
%TD*%
D10*
%TO.C,D50*%
X231463000Y-63125000D03*
X228163000Y-63125000D03*
%TD*%
D12*
%TO.C,SW8*%
X233155000Y-118537000D03*
D13*
X228075000Y-118537000D03*
D12*
X222995000Y-118537000D03*
D14*
X231885000Y-121077000D03*
X225535000Y-123617000D03*
%TD*%
D22*
%TO.C,U1*%
X201260000Y-130050000D03*
X199990000Y-130050000D03*
X198720000Y-130050000D03*
X197450000Y-130050000D03*
X196180000Y-130050000D03*
X194910000Y-130050000D03*
X193640000Y-130050000D03*
X192370000Y-130050000D03*
X191100000Y-130050000D03*
X189830000Y-130050000D03*
X188560000Y-130050000D03*
X187290000Y-130050000D03*
X186020000Y-130050000D03*
D23*
X184750000Y-130050000D03*
D24*
X183500000Y-131815000D03*
X183500000Y-133085000D03*
X183500000Y-134355000D03*
X183500000Y-135625000D03*
X183500000Y-136895000D03*
X183500000Y-138165000D03*
X183500000Y-139435000D03*
X183500000Y-140705000D03*
X183500000Y-141975000D03*
X183500000Y-143245000D03*
X183500000Y-144515000D03*
X183500000Y-145785000D03*
D22*
X184750000Y-147550000D03*
X186020000Y-147550000D03*
X187290000Y-147550000D03*
X188560000Y-147550000D03*
X189830000Y-147550000D03*
X191100000Y-147550000D03*
X192370000Y-147550000D03*
X193640000Y-147550000D03*
X194910000Y-147550000D03*
X196180000Y-147550000D03*
X197450000Y-147550000D03*
X198720000Y-147550000D03*
X199990000Y-147550000D03*
X201260000Y-147550000D03*
D25*
X194240000Y-135900000D03*
X192840000Y-135900000D03*
X194940000Y-136600000D03*
X193540000Y-136600000D03*
X192140000Y-136600000D03*
X194240000Y-137300000D03*
D26*
X193540000Y-137300000D03*
D25*
X192840000Y-137300000D03*
X194940000Y-138000000D03*
X193540000Y-138000000D03*
X192140000Y-138000000D03*
X194240000Y-138700000D03*
X192840000Y-138700000D03*
%TD*%
D12*
%TO.C,SW27*%
X52180000Y-75675000D03*
D13*
X47100000Y-75675000D03*
D12*
X42020000Y-75675000D03*
D14*
X50910000Y-78215000D03*
X44560000Y-80755000D03*
%TD*%
D12*
%TO.C,SW33*%
X166480000Y-75675000D03*
D13*
X161400000Y-75675000D03*
D12*
X156320000Y-75675000D03*
D14*
X165210000Y-78215000D03*
X158860000Y-80755000D03*
%TD*%
D12*
%TO.C,SW5*%
X166480000Y-118537000D03*
D13*
X161400000Y-118537000D03*
D12*
X156320000Y-118537000D03*
D14*
X165210000Y-121077000D03*
X158860000Y-123617000D03*
%TD*%
D10*
%TO.C,D1*%
X83825000Y-125037000D03*
X80525000Y-125037000D03*
%TD*%
%TO.C,D67*%
X76681000Y-25025000D03*
X73381000Y-25025000D03*
%TD*%
D12*
%TO.C,SW65*%
X25986000Y-18525000D03*
D13*
X20906000Y-18525000D03*
D12*
X15826000Y-18525000D03*
D14*
X24716000Y-21065000D03*
X18366000Y-23605000D03*
%TD*%
D12*
%TO.C,SW29*%
X90280000Y-75675000D03*
D13*
X85200000Y-75675000D03*
D12*
X80120000Y-75675000D03*
D14*
X89010000Y-78215000D03*
X82660000Y-80755000D03*
%TD*%
D12*
%TO.C,SW48*%
X190293000Y-56625000D03*
D13*
X185213000Y-56625000D03*
D12*
X180133000Y-56625000D03*
D14*
X189023000Y-59165000D03*
X182673000Y-61705000D03*
%TD*%
D10*
%TO.C,D19*%
X160025000Y-101225000D03*
X156725000Y-101225000D03*
%TD*%
%TO.C,D63*%
X240988000Y-44075000D03*
X237688000Y-44075000D03*
%TD*%
%TO.C,D36*%
X226700000Y-82175000D03*
X223400000Y-82175000D03*
%TD*%
%TO.C,D7*%
X207650000Y-125037000D03*
X204350000Y-125037000D03*
%TD*%
D27*
%TO.C,ST3*%
X42369000Y-44560000D03*
D28*
X42369000Y-29350000D03*
D27*
X18493000Y-44560000D03*
D28*
X18493000Y-29350000D03*
%TD*%
D12*
%TO.C,SW21*%
X195055000Y-94725000D03*
D13*
X189975000Y-94725000D03*
D12*
X184895000Y-94725000D03*
D14*
X193785000Y-97265000D03*
X187435000Y-99805000D03*
%TD*%
D10*
%TO.C,D68*%
X148119000Y-25025000D03*
X144819000Y-25025000D03*
%TD*%
%TO.C,D59*%
X164788000Y-44075000D03*
X161488000Y-44075000D03*
%TD*%
D27*
%TO.C,ST1*%
X287638000Y-101710000D03*
D28*
X287638000Y-86500000D03*
D27*
X263762000Y-101710000D03*
D28*
X263762000Y-86500000D03*
%TD*%
D10*
%TO.C,D47*%
X174312000Y-63125000D03*
X171012000Y-63125000D03*
%TD*%
%TO.C,D9*%
X255275000Y-125037000D03*
X251975000Y-125037000D03*
%TD*%
D27*
%TO.C,ST4*%
X189969000Y-25510000D03*
D28*
X189969000Y-10300000D03*
D27*
X89969000Y-25510000D03*
D28*
X89969000Y-10300000D03*
%TD*%
D12*
%TO.C,SW52*%
X278399000Y-56625000D03*
D13*
X273319000Y-56625000D03*
D12*
X268239000Y-56625000D03*
D14*
X277129000Y-59165000D03*
X270779000Y-61705000D03*
%TD*%
D10*
%TO.C,D11*%
X293375000Y-125037000D03*
X290075000Y-125037000D03*
%TD*%
D14*
%TO.C,J3*%
X17000000Y-119563000D03*
X59000000Y-119563000D03*
D29*
X20900000Y-114363000D03*
X24700000Y-114363000D03*
X28500000Y-114363000D03*
X32300000Y-114363000D03*
X36100000Y-114363000D03*
X39900000Y-114363000D03*
X43700000Y-114363000D03*
X47500000Y-114363000D03*
X51300000Y-114363000D03*
X55100000Y-114363000D03*
%TD*%
D10*
%TO.C,D18*%
X140975000Y-101225000D03*
X137675000Y-101225000D03*
%TD*%
D12*
%TO.C,SW66*%
X49799000Y-18525000D03*
D13*
X44719000Y-18525000D03*
D12*
X39639000Y-18525000D03*
D14*
X48529000Y-21065000D03*
X42179000Y-23605000D03*
%TD*%
D10*
%TO.C,D72*%
X326713000Y-125037000D03*
X323413000Y-125037000D03*
%TD*%
%TO.C,D76*%
X326713000Y-82175000D03*
X323413000Y-82175000D03*
%TD*%
D12*
%TO.C,SW58*%
X142668000Y-37575000D03*
D13*
X137588000Y-37575000D03*
D12*
X132508000Y-37575000D03*
D14*
X141398000Y-40115000D03*
X135048000Y-42655000D03*
%TD*%
D10*
%TO.C,D35*%
X207650000Y-82175000D03*
X204350000Y-82175000D03*
%TD*%
%TO.C,D5*%
X169550000Y-125037000D03*
X166250000Y-125037000D03*
%TD*%
%TO.C,D8*%
X236225000Y-125037000D03*
X232925000Y-125037000D03*
%TD*%
D12*
%TO.C,SW75*%
X304592000Y-75675000D03*
D13*
X299512000Y-75675000D03*
D12*
X294432000Y-75675000D03*
D14*
X303322000Y-78215000D03*
X296972000Y-80755000D03*
%TD*%
D12*
%TO.C,SW72*%
X323643000Y-118537000D03*
D13*
X318563000Y-118537000D03*
D12*
X313483000Y-118537000D03*
D14*
X322373000Y-121077000D03*
X316023000Y-123617000D03*
%TD*%
D10*
%TO.C,D32*%
X150500000Y-82175000D03*
X147200000Y-82175000D03*
%TD*%
D12*
%TO.C,SW80*%
X285543000Y-18525000D03*
D13*
X280463000Y-18525000D03*
D12*
X275383000Y-18525000D03*
D14*
X284273000Y-21065000D03*
X277923000Y-23605000D03*
%TD*%
D12*
%TO.C,SW81*%
X304592000Y-18525000D03*
D13*
X299512000Y-18525000D03*
D12*
X294432000Y-18525000D03*
D14*
X303322000Y-21065000D03*
X296972000Y-23605000D03*
%TD*%
D12*
%TO.C,SW23*%
X233155000Y-94725000D03*
D13*
X228075000Y-94725000D03*
D12*
X222995000Y-94725000D03*
D14*
X231885000Y-97265000D03*
X225535000Y-99805000D03*
%TD*%
D12*
%TO.C,SW42*%
X75992000Y-56625000D03*
D13*
X70912000Y-56625000D03*
D12*
X65832000Y-56625000D03*
D14*
X74722000Y-59165000D03*
X68372000Y-61705000D03*
%TD*%
D10*
%TO.C,D3*%
X121925000Y-125037000D03*
X118625000Y-125037000D03*
%TD*%
%TO.C,D71*%
X267181000Y-25025000D03*
X263881000Y-25025000D03*
%TD*%
D12*
%TO.C,SW34*%
X185530000Y-75675000D03*
D13*
X180450000Y-75675000D03*
D12*
X175370000Y-75675000D03*
D14*
X184260000Y-78215000D03*
X177910000Y-80755000D03*
%TD*%
D10*
%TO.C,D66*%
X52869000Y-25025000D03*
X49569000Y-25025000D03*
%TD*%
D12*
%TO.C,SW4*%
X147430000Y-118537000D03*
D13*
X142350000Y-118537000D03*
D12*
X137270000Y-118537000D03*
D14*
X146160000Y-121077000D03*
X139810000Y-123617000D03*
%TD*%
D12*
%TO.C,SW62*%
X218867000Y-37575000D03*
D13*
X213787000Y-37575000D03*
D12*
X208707000Y-37575000D03*
D14*
X217597000Y-40115000D03*
X211247000Y-42655000D03*
%TD*%
D12*
%TO.C,SW73*%
X304592000Y-94725000D03*
D13*
X299512000Y-94725000D03*
D12*
X294432000Y-94725000D03*
D14*
X303322000Y-97265000D03*
X296972000Y-99805000D03*
%TD*%
D10*
%TO.C,D48*%
X193363000Y-63125000D03*
X190063000Y-63125000D03*
%TD*%
D12*
%TO.C,SW49*%
X209343000Y-56625000D03*
D13*
X204263000Y-56625000D03*
D12*
X199183000Y-56625000D03*
D14*
X208073000Y-59165000D03*
X201723000Y-61705000D03*
%TD*%
D11*
%TO.C,C2*%
X140700000Y-144500000D03*
X142300000Y-144500000D03*
%TD*%
D10*
%TO.C,D54*%
X69538000Y-44075000D03*
X66238000Y-44075000D03*
%TD*%
D12*
%TO.C,SW76*%
X323643000Y-75675000D03*
D13*
X318563000Y-75675000D03*
D12*
X313483000Y-75675000D03*
D14*
X322373000Y-78215000D03*
X316023000Y-80755000D03*
%TD*%
D10*
%TO.C,D44*%
X117163000Y-63125000D03*
X113863000Y-63125000D03*
%TD*%
D12*
%TO.C,SW47*%
X171242000Y-56625000D03*
D13*
X166162000Y-56625000D03*
D12*
X161082000Y-56625000D03*
D14*
X169972000Y-59165000D03*
X163622000Y-61705000D03*
%TD*%
D11*
%TO.C,R5*%
X123700000Y-138000000D03*
X125300000Y-138000000D03*
%TD*%
D12*
%TO.C,SW36*%
X223630000Y-75675000D03*
D13*
X218550000Y-75675000D03*
D12*
X213470000Y-75675000D03*
D14*
X222360000Y-78215000D03*
X216010000Y-80755000D03*
%TD*%
D10*
%TO.C,D23*%
X236225000Y-101225000D03*
X232925000Y-101225000D03*
%TD*%
%TO.C,D61*%
X202888000Y-44075000D03*
X199588000Y-44075000D03*
%TD*%
D12*
%TO.C,SW39*%
X285543000Y-75675000D03*
D13*
X280463000Y-75675000D03*
D12*
X275383000Y-75675000D03*
D14*
X284273000Y-78215000D03*
X277923000Y-80755000D03*
%TD*%
D12*
%TO.C,SW35*%
X204580000Y-75675000D03*
D13*
X199500000Y-75675000D03*
D12*
X194420000Y-75675000D03*
D14*
X203310000Y-78215000D03*
X196960000Y-80755000D03*
%TD*%
D10*
%TO.C,D27*%
X55250000Y-82175000D03*
X51950000Y-82175000D03*
%TD*%
%TO.C,D60*%
X183838000Y-44075000D03*
X180538000Y-44075000D03*
%TD*%
D12*
%TO.C,SW71*%
X264111000Y-18525000D03*
D13*
X259031000Y-18525000D03*
D12*
X253951000Y-18525000D03*
D14*
X262841000Y-21065000D03*
X256491000Y-23605000D03*
%TD*%
D12*
%TO.C,SW46*%
X152193000Y-56625000D03*
D13*
X147113000Y-56625000D03*
D12*
X142033000Y-56625000D03*
D14*
X150923000Y-59165000D03*
X144573000Y-61705000D03*
%TD*%
D10*
%TO.C,D69*%
X219556000Y-25025000D03*
X216256000Y-25025000D03*
%TD*%
D11*
%TO.C,F1*%
X116200000Y-138000000D03*
X117800000Y-138000000D03*
%TD*%
D10*
%TO.C,D4*%
X150500000Y-125037000D03*
X147200000Y-125037000D03*
%TD*%
%TO.C,D17*%
X121925000Y-101225000D03*
X118625000Y-101225000D03*
%TD*%
D12*
%TO.C,SW15*%
X80755000Y-94725000D03*
D13*
X75675000Y-94725000D03*
D12*
X70595000Y-94725000D03*
D14*
X79485000Y-97265000D03*
X73135000Y-99805000D03*
%TD*%
D10*
%TO.C,D34*%
X188600000Y-82175000D03*
X185300000Y-82175000D03*
%TD*%
D12*
%TO.C,SW79*%
X304592000Y-37575000D03*
D13*
X299512000Y-37575000D03*
D12*
X294432000Y-37575000D03*
D14*
X303322000Y-40115000D03*
X296972000Y-42655000D03*
%TD*%
D10*
%TO.C,D42*%
X79062000Y-63125000D03*
X75762000Y-63125000D03*
%TD*%
D12*
%TO.C,SW28*%
X71230000Y-75675000D03*
D13*
X66150000Y-75675000D03*
D12*
X61070000Y-75675000D03*
D14*
X69960000Y-78215000D03*
X63610000Y-80755000D03*
%TD*%
D12*
%TO.C,SW43*%
X95043000Y-56625000D03*
D13*
X89963000Y-56625000D03*
D12*
X84883000Y-56625000D03*
D14*
X93773000Y-59165000D03*
X87423000Y-61705000D03*
%TD*%
D10*
%TO.C,D38*%
X264800000Y-82175000D03*
X261500000Y-82175000D03*
%TD*%
%TO.C,D53*%
X38581000Y-44075000D03*
X35281000Y-44075000D03*
%TD*%
D11*
%TO.C,R6*%
X130700000Y-138000000D03*
X132300000Y-138000000D03*
%TD*%
D10*
%TO.C,D56*%
X107637000Y-44075000D03*
X104337000Y-44075000D03*
%TD*%
%TO.C,D49*%
X212413000Y-63125000D03*
X209113000Y-63125000D03*
%TD*%
D11*
%TO.C,R1*%
X178700000Y-147000000D03*
X180300000Y-147000000D03*
%TD*%
D10*
%TO.C,D43*%
X98113000Y-63125000D03*
X94813000Y-63125000D03*
%TD*%
D12*
%TO.C,SW32*%
X147430000Y-75675000D03*
D13*
X142350000Y-75675000D03*
D12*
X137270000Y-75675000D03*
D14*
X146160000Y-78215000D03*
X139810000Y-80755000D03*
%TD*%
D12*
%TO.C,SW19*%
X156955000Y-94725000D03*
D13*
X151875000Y-94725000D03*
D12*
X146795000Y-94725000D03*
D14*
X155685000Y-97265000D03*
X149335000Y-99805000D03*
%TD*%
D11*
%TO.C,R10*%
X108700000Y-138000000D03*
X110300000Y-138000000D03*
%TD*%
D10*
%TO.C,D39*%
X288613000Y-82175000D03*
X285313000Y-82175000D03*
%TD*%
%TO.C,D77*%
X307662000Y-63125000D03*
X304362000Y-63125000D03*
%TD*%
%TO.C,D30*%
X112400000Y-82175000D03*
X109100000Y-82175000D03*
%TD*%
D12*
%TO.C,SW11*%
X290305000Y-118537000D03*
D13*
X285225000Y-118537000D03*
D12*
X280145000Y-118537000D03*
D14*
X289035000Y-121077000D03*
X282685000Y-123617000D03*
%TD*%
D10*
%TO.C,D16*%
X102875000Y-101225000D03*
X99575000Y-101225000D03*
%TD*%
D12*
%TO.C,SW13*%
X42655000Y-94725000D03*
D13*
X37575000Y-94725000D03*
D12*
X32495000Y-94725000D03*
D14*
X41385000Y-97265000D03*
X35035000Y-99805000D03*
%TD*%
D12*
%TO.C,SW69*%
X216486000Y-18525000D03*
D13*
X211406000Y-18525000D03*
D12*
X206326000Y-18525000D03*
D14*
X215216000Y-21065000D03*
X208866000Y-23605000D03*
%TD*%
D12*
%TO.C,SW55*%
X85518000Y-37575000D03*
D13*
X80438000Y-37575000D03*
D12*
X75358000Y-37575000D03*
D14*
X84248000Y-40115000D03*
X77898000Y-42655000D03*
%TD*%
D10*
%TO.C,D79*%
X307662000Y-44075000D03*
X304362000Y-44075000D03*
%TD*%
D11*
%TO.C,C1*%
X151700000Y-144500000D03*
X153300000Y-144500000D03*
%TD*%
D10*
%TO.C,D73*%
X307662000Y-101225000D03*
X304362000Y-101225000D03*
%TD*%
D12*
%TO.C,SW50*%
X228393000Y-56625000D03*
D13*
X223313000Y-56625000D03*
D12*
X218233000Y-56625000D03*
D14*
X227123000Y-59165000D03*
X220773000Y-61705000D03*
%TD*%
D12*
%TO.C,SW7*%
X204580000Y-118537000D03*
D13*
X199500000Y-118537000D03*
D12*
X194420000Y-118537000D03*
D14*
X203310000Y-121077000D03*
X196960000Y-123617000D03*
%TD*%
D12*
%TO.C,SW20*%
X176005000Y-94725000D03*
D13*
X170925000Y-94725000D03*
D12*
X165845000Y-94725000D03*
D14*
X174735000Y-97265000D03*
X168385000Y-99805000D03*
%TD*%
D10*
%TO.C,D2*%
X102875000Y-125037000D03*
X99575000Y-125037000D03*
%TD*%
D11*
%TO.C,R3*%
X156700000Y-145000000D03*
X158300000Y-145000000D03*
%TD*%
D12*
%TO.C,SW54*%
X66468000Y-37575000D03*
D13*
X61388000Y-37575000D03*
D12*
X56308000Y-37575000D03*
D14*
X65198000Y-40115000D03*
X58848000Y-42655000D03*
%TD*%
D10*
%TO.C,D82*%
X326713000Y-25025000D03*
X323413000Y-25025000D03*
%TD*%
%TO.C,D51*%
X250513000Y-63125000D03*
X247213000Y-63125000D03*
%TD*%
%TO.C,D70*%
X243369000Y-25025000D03*
X240069000Y-25025000D03*
%TD*%
%TO.C,D78*%
X326713000Y-63125000D03*
X323413000Y-63125000D03*
%TD*%
%TO.C,D40*%
X33819000Y-63125000D03*
X30519000Y-63125000D03*
%TD*%
D12*
%TO.C,SW59*%
X161718000Y-37575000D03*
D13*
X156638000Y-37575000D03*
D12*
X151558000Y-37575000D03*
D14*
X160448000Y-40115000D03*
X154098000Y-42655000D03*
%TD*%
D12*
%TO.C,SW56*%
X104567000Y-37575000D03*
D13*
X99487000Y-37575000D03*
D12*
X94407000Y-37575000D03*
D14*
X103297000Y-40115000D03*
X96947000Y-42655000D03*
%TD*%
D10*
%TO.C,D74*%
X326713000Y-101225000D03*
X323413000Y-101225000D03*
%TD*%
D12*
%TO.C,SW70*%
X240299000Y-18525000D03*
D13*
X235219000Y-18525000D03*
D12*
X230139000Y-18525000D03*
D14*
X239029000Y-21065000D03*
X232679000Y-23605000D03*
%TD*%
D12*
%TO.C,SW63*%
X237918000Y-37575000D03*
D13*
X232838000Y-37575000D03*
D12*
X227758000Y-37575000D03*
D14*
X236648000Y-40115000D03*
X230298000Y-42655000D03*
%TD*%
D12*
%TO.C,SW77*%
X304592000Y-56625000D03*
D13*
X299512000Y-56625000D03*
D12*
X294432000Y-56625000D03*
D14*
X303322000Y-59165000D03*
X296972000Y-61705000D03*
%TD*%
D10*
%TO.C,D10*%
X274325000Y-125037000D03*
X271025000Y-125037000D03*
%TD*%
%TO.C,D15*%
X83825000Y-101225000D03*
X80525000Y-101225000D03*
%TD*%
D27*
%TO.C,ST2*%
X285257000Y-63610000D03*
D28*
X285257000Y-48400000D03*
D27*
X261381000Y-63610000D03*
D28*
X261381000Y-48400000D03*
%TD*%
D10*
%TO.C,D20*%
X179075000Y-101225000D03*
X175775000Y-101225000D03*
%TD*%
%TO.C,D81*%
X307662000Y-25025000D03*
X304362000Y-25025000D03*
%TD*%
D12*
%TO.C,SW24*%
X252205000Y-94725000D03*
D13*
X247125000Y-94725000D03*
D12*
X242045000Y-94725000D03*
D14*
X250935000Y-97265000D03*
X244585000Y-99805000D03*
%TD*%
D12*
%TO.C,SW40*%
X30749000Y-56625000D03*
D13*
X25669000Y-56625000D03*
D12*
X20589000Y-56625000D03*
D14*
X29479000Y-59165000D03*
X23129000Y-61705000D03*
%TD*%
D10*
%TO.C,D13*%
X45725000Y-101225000D03*
X42425000Y-101225000D03*
%TD*%
%TO.C,D62*%
X221937000Y-44075000D03*
X218637000Y-44075000D03*
%TD*%
%TO.C,D29*%
X93350000Y-82175000D03*
X90050000Y-82175000D03*
%TD*%
D12*
%TO.C,SW41*%
X56943000Y-56625000D03*
D13*
X51863000Y-56625000D03*
D12*
X46783000Y-56625000D03*
D14*
X55673000Y-59165000D03*
X49323000Y-61705000D03*
%TD*%
D10*
%TO.C,D64*%
X267181000Y-44075000D03*
X263881000Y-44075000D03*
%TD*%
%TO.C,D52*%
X281469000Y-63125000D03*
X278169000Y-63125000D03*
%TD*%
D12*
%TO.C,SW1*%
X80755000Y-118537000D03*
D13*
X75675000Y-118537000D03*
D12*
X70595000Y-118537000D03*
D14*
X79485000Y-121077000D03*
X73135000Y-123617000D03*
%TD*%
D10*
%TO.C,D57*%
X126688000Y-44075000D03*
X123388000Y-44075000D03*
%TD*%
%TO.C,D24*%
X255275000Y-101225000D03*
X251975000Y-101225000D03*
%TD*%
D12*
%TO.C,SW6*%
X185530000Y-118537000D03*
D13*
X180450000Y-118537000D03*
D12*
X175370000Y-118537000D03*
D14*
X184260000Y-121077000D03*
X177910000Y-123617000D03*
%TD*%
D10*
%TO.C,D41*%
X60013000Y-63125000D03*
X56713000Y-63125000D03*
%TD*%
D12*
%TO.C,SW14*%
X61705000Y-94725000D03*
D13*
X56625000Y-94725000D03*
D12*
X51545000Y-94725000D03*
D14*
X60435000Y-97265000D03*
X54085000Y-99805000D03*
%TD*%
D10*
%TO.C,D46*%
X155263000Y-63125000D03*
X151963000Y-63125000D03*
%TD*%
D12*
%TO.C,SW25*%
X280780000Y-94725000D03*
D13*
X275700000Y-94725000D03*
D12*
X270620000Y-94725000D03*
D14*
X279510000Y-97265000D03*
X273160000Y-99805000D03*
%TD*%
D12*
%TO.C,SW45*%
X133143000Y-56625000D03*
D13*
X128063000Y-56625000D03*
D12*
X122983000Y-56625000D03*
D14*
X131873000Y-59165000D03*
X125523000Y-61705000D03*
%TD*%
M02*
