M48
; DRILL file KiCad 10.0.3 date 2026-06-10T19:08:35
; FORMAT={-:-/ absolute / metric / decimal}
; #@! TF.CreationDate,2026-06-10T19:08:35-07:00
; #@! TF.GenerationSoftware,Kicad,Pcbnew,10.0.3
; #@! TF.FileFunction,NonPlated,1,2,NPTH
FMAT,2
METRIC
; #@! TA.AperFunction,NonPlated,NPTH,ComponentDrill
T1C0.650
; #@! TA.AperFunction,NonPlated,NPTH,ComponentDrill
T2C1.750
; #@! TA.AperFunction,NonPlated,NPTH,ComponentDrill
T3C1.800
; #@! TA.AperFunction,NonPlated,NPTH,ComponentDrill
T4C3.048
; #@! TA.AperFunction,NonPlated,NPTH,ComponentDrill
T5C3.988
; #@! TA.AperFunction,NonPlated,NPTH,ComponentDrill
T6C4.000
%
G90
G05
T1
X165.65Y-5.003
X171.43Y-5.003
T2
X13.445Y-55.338
X15.826Y-131.538
X18.208Y-74.388
X20.589Y-93.438
X23.605Y-55.338
X25.351Y-112.488
X25.986Y-131.538
X28.368Y-74.388
X30.749Y-93.438
X32.495Y-55.338
X35.511Y-112.488
X39.639Y-131.538
X42.02Y-74.388
X42.655Y-55.338
X46.783Y-93.438
X49.799Y-131.538
X51.545Y-55.338
X52.18Y-74.388
X56.308Y-112.488
X56.943Y-93.438
X61.07Y-74.388
X61.705Y-55.338
X63.451Y-131.538
X65.832Y-93.438
X66.468Y-112.488
X70.595Y-31.526
X70.595Y-55.338
X71.23Y-74.388
X73.611Y-131.538
X75.358Y-112.488
X75.992Y-93.438
X80.12Y-74.388
X80.755Y-31.526
X80.755Y-55.338
X84.883Y-93.438
X85.518Y-112.488
X89.645Y-31.526
X89.645Y-55.338
X90.28Y-74.388
X94.407Y-112.488
X95.043Y-93.438
X99.17Y-74.388
X99.805Y-31.526
X99.805Y-55.338
X103.933Y-93.438
X104.567Y-112.488
X108.695Y-31.526
X108.695Y-55.338
X109.33Y-74.388
X113.458Y-112.488
X114.093Y-93.438
X118.22Y-74.388
X118.855Y-31.526
X118.855Y-55.338
X122.983Y-93.438
X123.618Y-112.488
X127.745Y-55.338
X128.38Y-74.388
X132.508Y-112.488
X133.143Y-93.438
X134.889Y-131.538
X137.27Y-31.526
X137.27Y-74.388
X137.905Y-55.338
X142.033Y-93.438
X142.668Y-112.488
X145.049Y-131.538
X146.795Y-55.338
X147.43Y-31.526
X147.43Y-74.388
X151.558Y-112.488
X152.193Y-93.438
X156.32Y-31.526
X156.32Y-74.388
X156.955Y-55.338
X161.082Y-93.438
X161.718Y-112.488
X165.845Y-55.338
X166.48Y-31.526
X166.48Y-74.388
X170.608Y-112.488
X171.242Y-93.438
X175.37Y-31.526
X175.37Y-74.388
X176.005Y-55.338
X180.133Y-93.438
X180.768Y-112.488
X184.895Y-55.338
X185.53Y-31.526
X185.53Y-74.388
X189.658Y-112.488
X190.293Y-93.438
X194.42Y-31.526
X194.42Y-74.388
X195.055Y-55.338
X199.183Y-93.438
X199.818Y-112.488
X203.945Y-55.338
X204.58Y-31.526
X204.58Y-74.388
X206.326Y-131.538
X208.707Y-112.488
X209.343Y-93.438
X213.47Y-74.388
X214.105Y-55.338
X216.486Y-131.538
X218.233Y-93.438
X218.867Y-112.488
X222.995Y-31.526
X222.995Y-55.338
X223.63Y-74.388
X227.758Y-112.488
X228.393Y-93.438
X230.139Y-131.538
X232.52Y-74.388
X233.155Y-31.526
X233.155Y-55.338
X237.283Y-93.438
X237.918Y-112.488
X240.299Y-131.538
X242.045Y-31.526
X242.045Y-55.338
X242.68Y-74.388
X247.443Y-93.438
X251.57Y-74.388
X252.205Y-31.526
X252.205Y-55.338
X253.951Y-112.488
X253.951Y-131.538
X261.095Y-31.526
X261.73Y-74.388
X264.111Y-112.488
X264.111Y-131.538
X268.239Y-93.438
X270.62Y-55.338
X271.255Y-31.526
X275.383Y-74.388
X275.383Y-131.538
X278.399Y-93.438
X280.145Y-31.526
X280.78Y-55.338
X285.543Y-74.388
X285.543Y-131.538
X290.305Y-31.526
X294.432Y-55.338
X294.432Y-74.388
X294.432Y-93.438
X294.432Y-112.488
X294.432Y-131.538
X304.592Y-55.338
X304.592Y-74.388
X304.592Y-93.438
X304.592Y-112.488
X304.592Y-131.538
X313.483Y-31.526
X313.483Y-55.338
X313.483Y-74.388
X313.483Y-93.438
X313.483Y-131.538
X323.643Y-31.526
X323.643Y-55.338
X323.643Y-74.388
X323.643Y-93.438
X323.643Y-131.538
T3
X17.0Y-30.5
X59.0Y-30.5
T4
X18.493Y-105.503
X42.369Y-105.503
X89.969Y-124.553
X189.969Y-124.553
X261.381Y-86.453
X263.762Y-48.353
X285.257Y-86.453
X287.638Y-48.353
T5
X18.493Y-120.713
X42.369Y-120.713
X89.969Y-139.763
X189.969Y-139.763
X261.381Y-101.663
X263.762Y-63.563
X285.257Y-101.663
X287.638Y-63.563
T6
X18.525Y-55.338
X20.906Y-131.538
X23.288Y-74.388
X25.669Y-93.438
X30.431Y-112.488
X37.575Y-55.338
X44.719Y-131.538
X47.1Y-74.388
X51.863Y-93.438
X56.625Y-55.338
X61.388Y-112.488
X66.15Y-74.388
X68.531Y-131.538
X70.912Y-93.438
X75.675Y-31.526
X75.675Y-55.338
X80.438Y-112.488
X85.2Y-74.388
X89.963Y-93.438
X94.725Y-31.526
X94.725Y-55.338
X99.487Y-112.488
X104.25Y-74.388
X109.013Y-93.438
X113.775Y-31.526
X113.775Y-55.338
X118.538Y-112.488
X123.3Y-74.388
X128.063Y-93.438
X132.825Y-55.338
X137.588Y-112.488
X139.969Y-131.538
X142.35Y-31.526
X142.35Y-74.388
X147.113Y-93.438
X151.875Y-55.338
X156.638Y-112.488
X161.4Y-31.526
X161.4Y-74.388
X166.162Y-93.438
X170.925Y-55.338
X175.688Y-112.488
X180.45Y-31.526
X180.45Y-74.388
X185.213Y-93.438
X189.975Y-55.338
X194.738Y-112.488
X199.5Y-31.526
X199.5Y-74.388
X204.263Y-93.438
X209.025Y-55.338
X211.406Y-131.538
X213.787Y-112.488
X218.55Y-74.388
X223.313Y-93.438
X228.075Y-31.526
X228.075Y-55.338
X232.838Y-112.488
X235.219Y-131.538
X237.6Y-74.388
X242.363Y-93.438
X247.125Y-31.526
X247.125Y-55.338
X256.65Y-74.388
X259.031Y-112.488
X259.031Y-131.538
X266.175Y-31.526
X273.319Y-93.438
X275.7Y-55.338
X280.463Y-74.388
X280.463Y-131.538
X285.225Y-31.526
X299.512Y-55.338
X299.512Y-74.388
X299.512Y-93.438
X299.512Y-112.488
X299.512Y-131.538
X318.563Y-31.526
X318.563Y-55.338
X318.563Y-74.388
X318.563Y-93.438
X318.563Y-131.538
M30
