M48
; DRILL file KiCad 10.0.3 date 2026-06-10T19:08:35
; FORMAT={-:-/ absolute / metric / decimal}
; #@! TF.CreationDate,2026-06-10T19:08:35-07:00
; #@! TF.GenerationSoftware,Kicad,Pcbnew,10.0.3
; #@! TF.FileFunction,Plated,1,2,PTH
FMAT,2
METRIC
; #@! TA.AperFunction,Plated,PTH,ViaDrill
T1C0.300
; #@! TA.AperFunction,Plated,PTH,ComponentDrill
T2C0.300
; #@! TA.AperFunction,Plated,PTH,ComponentDrill
T3C0.600
; #@! TA.AperFunction,Plated,PTH,ComponentDrill
T4C3.050
%
G90
G05
T1
X34.2Y-36.725
X52.772Y-19.777
X53.015Y-34.108
X55.121Y-4.316
X60.164Y-33.764
X65.315Y-17.322
X96.909Y-34.738
X97.101Y-12.681
X99.894Y-16.778
X99.894Y-33.34
X105.358Y-16.619
X108.049Y-13.097
X108.849Y-14.254
X114.563Y-13.155
X114.819Y-9.946
X123.773Y-15.918
X126.0Y-4.916
X126.241Y-12.309
X135.713Y-21.962
X140.583Y-23.618
X140.7Y-5.666
X143.6Y-4.916
X152.45Y-6.313
X153.22Y-3.353
X154.72Y-8.103
X155.47Y-3.353
X156.72Y-10.103
X156.903Y-3.428
X157.045Y-6.903
X157.72Y-7.603
X158.14Y-4.109
X158.47Y-10.103
X161.97Y-6.853
X163.47Y-5.853
X167.427Y-7.787
X168.873Y-17.834
X174.686Y-2.126
X177.355Y-18.345
X177.405Y-33.962
X177.597Y-66.191
X177.624Y-7.747
X177.7Y-4.063
X178.7Y-6.063
X179.609Y-18.633
X180.486Y-12.03
X181.283Y-10.947
X181.737Y-13.24
X183.411Y-20.883
X183.471Y-22.305
X185.512Y-19.862
X186.456Y-21.993
X188.255Y-10.368
X189.299Y-2.362
X189.441Y-21.844
X191.252Y-47.357
X192.111Y-3.771
X192.426Y-8.961
X193.125Y-22.951
X194.715Y-86.815
X195.76Y-22.514
X196.192Y-4.142
X198.218Y-15.265
X198.387Y-24.448
X198.396Y-104.314
X200.485Y-21.774
X201.379Y-21.773
X202.194Y-13.95
X202.463Y-22.111
X203.471Y-21.763
X204.269Y-10.113
X204.366Y-4.525
X205.303Y-7.718
X206.379Y-3.767
X207.002Y-10.373
X208.072Y-122.172
X208.272Y-19.61
X209.145Y-19.44
X210.335Y-21.092
X210.952Y-29.443
X217.273Y-28.265
X231.229Y-7.264
X233.183Y-35.511
X264.064Y-1.426
X293.913Y-1.426
X294.903Y-46.537
T2
X197.06Y-12.063
X197.06Y-13.463
X197.76Y-11.363
X197.76Y-12.763
X197.76Y-14.163
X198.46Y-12.063
X198.46Y-13.463
X199.16Y-11.363
X199.16Y-12.763
X199.16Y-14.163
X199.86Y-12.063
X199.86Y-13.463
T4
X14.715Y-52.798
X17.096Y-128.998
X19.478Y-71.848
X21.065Y-50.258
X21.859Y-90.898
X23.446Y-126.458
X25.828Y-69.308
X26.621Y-109.948
X28.209Y-88.358
X32.971Y-107.408
X33.765Y-52.798
X40.115Y-50.258
X40.909Y-128.998
X43.29Y-71.848
X47.259Y-126.458
X48.053Y-90.898
X49.64Y-69.308
X52.815Y-52.798
X54.403Y-88.358
X57.578Y-109.948
X59.165Y-50.258
X62.34Y-71.848
X63.928Y-107.408
X64.721Y-128.998
X67.102Y-90.898
X68.69Y-69.308
X71.071Y-126.458
X71.865Y-28.986
X71.865Y-52.798
X73.452Y-88.358
X76.628Y-109.948
X78.215Y-26.446
X78.215Y-50.258
X81.39Y-71.848
X82.978Y-107.408
X86.153Y-90.898
X87.74Y-69.308
X90.915Y-28.986
X90.915Y-52.798
X92.503Y-88.358
X95.677Y-109.948
X97.265Y-26.446
X97.265Y-50.258
X100.44Y-71.848
X102.027Y-107.408
X105.203Y-90.898
X106.79Y-69.308
X109.965Y-28.986
X109.965Y-52.798
X111.553Y-88.358
X114.728Y-109.948
X116.315Y-26.446
X116.315Y-50.258
X119.49Y-71.848
X121.078Y-107.408
X124.253Y-90.898
X125.84Y-69.308
X129.015Y-52.798
X130.603Y-88.358
X133.778Y-109.948
X135.365Y-50.258
X136.159Y-128.998
X138.54Y-28.986
X138.54Y-71.848
X140.128Y-107.408
X142.509Y-126.458
X143.303Y-90.898
X144.89Y-26.446
X144.89Y-69.308
X148.065Y-52.798
X149.653Y-88.358
X152.828Y-109.948
X154.415Y-50.258
X157.59Y-28.986
X157.59Y-71.848
X159.178Y-107.408
X162.352Y-90.898
X163.94Y-26.446
X163.94Y-69.308
X167.115Y-52.798
X168.702Y-88.358
X171.878Y-109.948
X173.465Y-50.258
X176.64Y-28.986
X176.64Y-71.848
X178.228Y-107.408
X181.403Y-90.898
X182.99Y-26.446
X182.99Y-69.308
X186.165Y-52.798
X187.753Y-88.358
X190.928Y-109.948
X192.515Y-50.258
X195.69Y-28.986
X195.69Y-71.848
X197.278Y-107.408
X200.453Y-90.898
X202.04Y-26.446
X202.04Y-69.308
X205.215Y-52.798
X206.803Y-88.358
X207.596Y-128.998
X209.977Y-109.948
X211.565Y-50.258
X213.946Y-126.458
X214.74Y-71.848
X216.327Y-107.408
X219.503Y-90.898
X221.09Y-69.308
X224.265Y-28.986
X224.265Y-52.798
X225.853Y-88.358
X229.028Y-109.948
X230.615Y-26.446
X230.615Y-50.258
X231.409Y-128.998
X233.79Y-71.848
X235.378Y-107.408
X237.759Y-126.458
X238.553Y-90.898
X240.14Y-69.308
X243.315Y-28.986
X243.315Y-52.798
X244.903Y-88.358
X249.665Y-26.446
X249.665Y-50.258
X252.84Y-71.848
X255.221Y-109.948
X255.221Y-128.998
X259.19Y-69.308
X261.571Y-107.408
X261.571Y-126.458
X262.365Y-28.986
X268.715Y-26.446
X269.509Y-90.898
X271.89Y-52.798
X275.859Y-88.358
X276.653Y-71.848
X276.653Y-128.998
X278.24Y-50.258
X281.415Y-28.986
X283.003Y-69.308
X283.003Y-126.458
X287.765Y-26.446
X295.702Y-52.798
X295.702Y-71.848
X295.702Y-90.898
X295.702Y-109.948
X295.702Y-128.998
X302.052Y-50.258
X302.052Y-69.308
X302.052Y-88.358
X302.052Y-107.408
X302.052Y-126.458
X314.753Y-28.986
X314.753Y-52.798
X314.753Y-71.848
X314.753Y-90.898
X314.753Y-128.998
X321.103Y-26.446
X321.103Y-50.258
X321.103Y-69.308
X321.103Y-88.358
X321.103Y-126.458
T3
X164.22Y-1.653G85X164.22Y-1.053
G05
X164.22Y-6.083G85X164.22Y-4.983
G05
X172.86Y-1.653G85X172.86Y-1.053
G05
X172.86Y-6.083G85X172.86Y-4.983
G05
M30
