%TF.GenerationSoftware,KiCad,Pcbnew,10.0.3*%
%TF.CreationDate,2026-06-10T19:08:34-07:00*%
%TF.ProjectId,oso75,6f736f37-352e-46b6-9963-61645f706362,rev?*%
%TF.SameCoordinates,Original*%
%TF.FileFunction,Soldermask,Top*%
%TF.FilePolarity,Negative*%
%FSLAX46Y46*%
G04 Gerber Fmt 4.6, Leading zero omitted, Abs format (unit mm)*
G04 Created by KiCad (PCBNEW 10.0.3) date 2026-06-10 19:08:34*
%MOMM*%
%LPD*%
G01*
G04 APERTURE LIST*
G04 Aperture macros list*
%AMRoundRect*
0 Rectangle with rounded corners*
0 $1 Rounding radius*
0 $2 $3 $4 $5 $6 $7 $8 $9 X,Y pos of 4 corners*
0 Add a 4 corners polygon primitive as box body*
4,1,4,$2,$3,$4,$5,$6,$7,$8,$9,$2,$3,0*
0 Add four circle primitives for the rounded corners*
1,1,$1+$1,$2,$3*
1,1,$1+$1,$4,$5*
1,1,$1+$1,$6,$7*
1,1,$1+$1,$8,$9*
0 Add four rect primitives between the rounded corners*
20,1,$1+$1,$2,$3,$4,$5,0*
20,1,$1+$1,$4,$5,$6,$7,0*
20,1,$1+$1,$6,$7,$8,$9,0*
20,1,$1+$1,$8,$9,$2,$3,0*%
G04 Aperture macros list end*
%ADD10RoundRect,0.260000X0.390000X0.540000X-0.390000X0.540000X-0.390000X-0.540000X0.390000X-0.540000X0*%
%ADD11RoundRect,0.180000X0.270000X0.320000X-0.270000X0.320000X-0.270000X-0.320000X0.270000X-0.320000X0*%
%ADD12C,1.850000*%
%ADD13C,4.100000*%
%ADD14C,3.700000*%
%ADD15RoundRect,0.260000X0.390000X0.640000X-0.390000X0.640000X-0.390000X-0.640000X0.390000X-0.640000X0*%
%ADD16C,0.750000*%
%ADD17RoundRect,0.175000X0.175000X0.600000X-0.175000X0.600000X-0.175000X-0.600000X0.175000X-0.600000X0*%
%ADD18RoundRect,0.100000X0.100000X0.675000X-0.100000X0.675000X-0.100000X-0.675000X0.100000X-0.675000X0*%
%ADD19O,1.100000X2.200000*%
%ADD20O,1.100000X1.700000*%
%ADD21RoundRect,0.130000X0.245000X0.195000X-0.245000X0.195000X-0.245000X-0.195000X0.245000X-0.195000X0*%
%ADD22RoundRect,0.050000X0.450000X-0.750000X0.450000X0.750000X-0.450000X0.750000X-0.450000X-0.750000X0*%
%ADD23RoundRect,0.050000X-0.450000X0.750000X-0.450000X-0.750000X0.450000X-0.750000X0.450000X0.750000X0*%
%ADD24RoundRect,0.050000X-0.750000X-0.450000X0.750000X-0.450000X0.750000X0.450000X-0.750000X0.450000X0*%
%ADD25C,0.700000*%
%ADD26RoundRect,0.050000X-1.950000X-1.950000X1.950000X-1.950000X1.950000X1.950000X-1.950000X1.950000X0*%
%ADD27C,3.148000*%
%ADD28C,4.087800*%
%ADD29RoundRect,0.414000X0.736000X2.136000X-0.736000X2.136000X-0.736000X-2.136000X0.736000X-2.136000X0*%
G04 APERTURE END LIST*
D10*
%TO.C,D12*%
X10375000Y-48838000D03*
X13675000Y-48838000D03*
%TD*%
D11*
%TO.C,C3*%
X178800000Y-19563000D03*
X177200000Y-19563000D03*
%TD*%
D12*
%TO.C,SW12*%
X13445000Y-55338000D03*
D13*
X18525000Y-55338000D03*
D12*
X23605000Y-55338000D03*
D14*
X14715000Y-52798000D03*
X21065000Y-50258000D03*
%TD*%
D12*
%TO.C,SW68*%
X134889000Y-131538000D03*
D13*
X139969000Y-131538000D03*
D12*
X145049000Y-131538000D03*
D14*
X136159000Y-128998000D03*
X142509000Y-126458000D03*
%TD*%
D12*
%TO.C,SW74*%
X313483000Y-55338000D03*
D13*
X318563000Y-55338000D03*
D12*
X323643000Y-55338000D03*
D14*
X314753000Y-52798000D03*
X321103000Y-50258000D03*
%TD*%
D12*
%TO.C,SW22*%
X203945000Y-55338000D03*
D13*
X209025000Y-55338000D03*
D12*
X214105000Y-55338000D03*
D14*
X205215000Y-52798000D03*
X211565000Y-50258000D03*
%TD*%
D11*
%TO.C,C_EN*%
X93400000Y-9063000D03*
X91800000Y-9063000D03*
%TD*%
D12*
%TO.C,SW37*%
X232520000Y-74388000D03*
D13*
X237600000Y-74388000D03*
D12*
X242680000Y-74388000D03*
D14*
X233790000Y-71848000D03*
X240140000Y-69308000D03*
%TD*%
D12*
%TO.C,SW60*%
X170608000Y-112488000D03*
D13*
X175688000Y-112488000D03*
D12*
X180768000Y-112488000D03*
D14*
X171878000Y-109948000D03*
X178228000Y-107408000D03*
%TD*%
D12*
%TO.C,SW38*%
X251570000Y-74388000D03*
D13*
X256650000Y-74388000D03*
D12*
X261730000Y-74388000D03*
D14*
X252840000Y-71848000D03*
X259190000Y-69308000D03*
%TD*%
D10*
%TO.C,D75*%
X291362000Y-67888000D03*
X294662000Y-67888000D03*
%TD*%
%TO.C,D28*%
X58000000Y-67888000D03*
X61300000Y-67888000D03*
%TD*%
D15*
%TO.C,SW_RESET*%
X95200000Y-12063000D03*
X91800000Y-12063000D03*
%TD*%
D10*
%TO.C,D14*%
X48475000Y-48838000D03*
X51775000Y-48838000D03*
%TD*%
D12*
%TO.C,SW53*%
X25351000Y-112488000D03*
D13*
X30431000Y-112488000D03*
D12*
X35511000Y-112488000D03*
D14*
X26621000Y-109948000D03*
X32971000Y-107408000D03*
%TD*%
D12*
%TO.C,SW17*%
X108695000Y-55338000D03*
D13*
X113775000Y-55338000D03*
D12*
X118855000Y-55338000D03*
D14*
X109965000Y-52798000D03*
X116315000Y-50258000D03*
%TD*%
D12*
%TO.C,SW44*%
X103933000Y-93438000D03*
D13*
X109013000Y-93438000D03*
D12*
X114093000Y-93438000D03*
D14*
X105203000Y-90898000D03*
X111553000Y-88358000D03*
%TD*%
D12*
%TO.C,SW82*%
X313483000Y-131538000D03*
D13*
X318563000Y-131538000D03*
D12*
X323643000Y-131538000D03*
D14*
X314753000Y-128998000D03*
X321103000Y-126458000D03*
%TD*%
D10*
%TO.C,D25*%
X267550000Y-48838000D03*
X270850000Y-48838000D03*
%TD*%
%TO.C,D65*%
X12756000Y-125038000D03*
X16056000Y-125038000D03*
%TD*%
%TO.C,D37*%
X229450000Y-67888000D03*
X232750000Y-67888000D03*
%TD*%
%TO.C,D80*%
X272313000Y-125038000D03*
X275613000Y-125038000D03*
%TD*%
D12*
%TO.C,SW30*%
X99170000Y-74388000D03*
D13*
X104250000Y-74388000D03*
D12*
X109330000Y-74388000D03*
D14*
X100440000Y-71848000D03*
X106790000Y-69308000D03*
%TD*%
D12*
%TO.C,SW61*%
X189658000Y-112488000D03*
D13*
X194738000Y-112488000D03*
D12*
X199818000Y-112488000D03*
D14*
X190928000Y-109948000D03*
X197278000Y-107408000D03*
%TD*%
D16*
%TO.C,J1*%
X171430000Y-5003000D03*
X165650000Y-5003000D03*
D17*
X171790000Y-6448000D03*
X170990000Y-6448000D03*
D18*
X169790000Y-6448000D03*
X168790000Y-6448000D03*
X168290000Y-6448000D03*
X167290000Y-6448000D03*
D17*
X166090000Y-6448000D03*
X165290000Y-6448000D03*
X165290000Y-6448000D03*
X166090000Y-6448000D03*
D18*
X166790000Y-6448000D03*
X167790000Y-6448000D03*
X169290000Y-6448000D03*
X170290000Y-6448000D03*
D17*
X170990000Y-6448000D03*
X171790000Y-6448000D03*
D19*
X172860000Y-5533000D03*
D20*
X172860000Y-1353000D03*
D19*
X164220000Y-5533000D03*
D20*
X164220000Y-1353000D03*
%TD*%
D12*
%TO.C,SW78*%
X313483000Y-93438000D03*
D13*
X318563000Y-93438000D03*
D12*
X323643000Y-93438000D03*
D14*
X314753000Y-90898000D03*
X321103000Y-88358000D03*
%TD*%
D10*
%TO.C,D6*%
X172300000Y-25026000D03*
X175600000Y-25026000D03*
%TD*%
D12*
%TO.C,SW18*%
X127745000Y-55338000D03*
D13*
X132825000Y-55338000D03*
D12*
X137905000Y-55338000D03*
D14*
X129015000Y-52798000D03*
X135365000Y-50258000D03*
%TD*%
D12*
%TO.C,SW57*%
X113458000Y-112488000D03*
D13*
X118538000Y-112488000D03*
D12*
X123618000Y-112488000D03*
D14*
X114728000Y-109948000D03*
X121078000Y-107408000D03*
%TD*%
D12*
%TO.C,SW26*%
X18208000Y-74388000D03*
D13*
X23288000Y-74388000D03*
D12*
X28368000Y-74388000D03*
D14*
X19478000Y-71848000D03*
X25828000Y-69308000D03*
%TD*%
D10*
%TO.C,D26*%
X15138000Y-67888000D03*
X18438000Y-67888000D03*
%TD*%
%TO.C,D45*%
X119913000Y-86938000D03*
X123213000Y-86938000D03*
%TD*%
D11*
%TO.C,R2*%
X180300000Y-6063000D03*
X178700000Y-6063000D03*
%TD*%
D10*
%TO.C,D22*%
X200875000Y-48838000D03*
X204175000Y-48838000D03*
%TD*%
%TO.C,D21*%
X181825000Y-48838000D03*
X185125000Y-48838000D03*
%TD*%
D12*
%TO.C,SW31*%
X118220000Y-74388000D03*
D13*
X123300000Y-74388000D03*
D12*
X128380000Y-74388000D03*
D14*
X119490000Y-71848000D03*
X125840000Y-69308000D03*
%TD*%
D10*
%TO.C,D55*%
X72288000Y-105988000D03*
X75588000Y-105988000D03*
%TD*%
%TO.C,D33*%
X153250000Y-67888000D03*
X156550000Y-67888000D03*
%TD*%
D12*
%TO.C,SW10*%
X261095000Y-31526000D03*
D13*
X266175000Y-31526000D03*
D12*
X271255000Y-31526000D03*
D14*
X262365000Y-28986000D03*
X268715000Y-26446000D03*
%TD*%
D12*
%TO.C,SW16*%
X89645000Y-55338000D03*
D13*
X94725000Y-55338000D03*
D12*
X99805000Y-55338000D03*
D14*
X90915000Y-52798000D03*
X97265000Y-50258000D03*
%TD*%
D11*
%TO.C,R4*%
X158300000Y-8563000D03*
X156700000Y-8563000D03*
%TD*%
D12*
%TO.C,SW9*%
X242045000Y-31526000D03*
D13*
X247125000Y-31526000D03*
D12*
X252205000Y-31526000D03*
D14*
X243315000Y-28986000D03*
X249665000Y-26446000D03*
%TD*%
D10*
%TO.C,D58*%
X129438000Y-105988000D03*
X132738000Y-105988000D03*
%TD*%
D12*
%TO.C,SW51*%
X237283000Y-93438000D03*
D13*
X242363000Y-93438000D03*
D12*
X247443000Y-93438000D03*
D14*
X238553000Y-90898000D03*
X244903000Y-88358000D03*
%TD*%
D12*
%TO.C,SW3*%
X108695000Y-31526000D03*
D13*
X113775000Y-31526000D03*
D12*
X118855000Y-31526000D03*
D14*
X109965000Y-28986000D03*
X116315000Y-26446000D03*
%TD*%
D10*
%TO.C,D31*%
X115150000Y-67888000D03*
X118450000Y-67888000D03*
%TD*%
D12*
%TO.C,SW64*%
X253951000Y-112488000D03*
D13*
X259031000Y-112488000D03*
D12*
X264111000Y-112488000D03*
D14*
X255221000Y-109948000D03*
X261571000Y-107408000D03*
%TD*%
D12*
%TO.C,SW2*%
X89645000Y-31526000D03*
D13*
X94725000Y-31526000D03*
D12*
X99805000Y-31526000D03*
D14*
X90915000Y-28986000D03*
X97265000Y-26446000D03*
%TD*%
D12*
%TO.C,SW67*%
X63451000Y-131538000D03*
D13*
X68531000Y-131538000D03*
D12*
X73611000Y-131538000D03*
D14*
X64721000Y-128998000D03*
X71071000Y-126458000D03*
%TD*%
D15*
%TO.C,SW_BOOT*%
X103200000Y-12063000D03*
X99800000Y-12063000D03*
%TD*%
D11*
%TO.C,C4*%
X181800000Y-7563000D03*
X180200000Y-7563000D03*
%TD*%
D21*
%TO.C,U3*%
X148100000Y-6513000D03*
X148100000Y-5563000D03*
X148100000Y-4613000D03*
X145900000Y-4613000D03*
X145900000Y-6513000D03*
%TD*%
D10*
%TO.C,D50*%
X215163000Y-86938000D03*
X218463000Y-86938000D03*
%TD*%
D12*
%TO.C,SW8*%
X222995000Y-31526000D03*
D13*
X228075000Y-31526000D03*
D12*
X233155000Y-31526000D03*
D14*
X224265000Y-28986000D03*
X230615000Y-26446000D03*
%TD*%
D22*
%TO.C,U1*%
X190740000Y-20013000D03*
X192010000Y-20013000D03*
X193280000Y-20013000D03*
X194550000Y-20013000D03*
X195820000Y-20013000D03*
X197090000Y-20013000D03*
X198360000Y-20013000D03*
X199630000Y-20013000D03*
X200900000Y-20013000D03*
X202170000Y-20013000D03*
X203440000Y-20013000D03*
X204710000Y-20013000D03*
X205980000Y-20013000D03*
D23*
X207250000Y-20013000D03*
D24*
X208500000Y-18248000D03*
X208500000Y-16978000D03*
X208500000Y-15708000D03*
X208500000Y-14438000D03*
X208500000Y-13168000D03*
X208500000Y-11898000D03*
X208500000Y-10628000D03*
X208500000Y-9358000D03*
X208500000Y-8088000D03*
X208500000Y-6818000D03*
X208500000Y-5548000D03*
X208500000Y-4278000D03*
D22*
X207250000Y-2513000D03*
X205980000Y-2513000D03*
X204710000Y-2513000D03*
X203440000Y-2513000D03*
X202170000Y-2513000D03*
X200900000Y-2513000D03*
X199630000Y-2513000D03*
X198360000Y-2513000D03*
X197090000Y-2513000D03*
X195820000Y-2513000D03*
X194550000Y-2513000D03*
X193280000Y-2513000D03*
X192010000Y-2513000D03*
X190740000Y-2513000D03*
D25*
X197760000Y-14163000D03*
X199160000Y-14163000D03*
X197060000Y-13463000D03*
X198460000Y-13463000D03*
X199860000Y-13463000D03*
X197760000Y-12763000D03*
D26*
X198460000Y-12763000D03*
D25*
X199160000Y-12763000D03*
X197060000Y-12063000D03*
X198460000Y-12063000D03*
X199860000Y-12063000D03*
X197760000Y-11363000D03*
X199160000Y-11363000D03*
%TD*%
D12*
%TO.C,SW27*%
X42020000Y-74388000D03*
D13*
X47100000Y-74388000D03*
D12*
X52180000Y-74388000D03*
D14*
X43290000Y-71848000D03*
X49640000Y-69308000D03*
%TD*%
D12*
%TO.C,SW33*%
X156320000Y-74388000D03*
D13*
X161400000Y-74388000D03*
D12*
X166480000Y-74388000D03*
D14*
X157590000Y-71848000D03*
X163940000Y-69308000D03*
%TD*%
D12*
%TO.C,SW5*%
X156320000Y-31526000D03*
D13*
X161400000Y-31526000D03*
D12*
X166480000Y-31526000D03*
D14*
X157590000Y-28986000D03*
X163940000Y-26446000D03*
%TD*%
D10*
%TO.C,D1*%
X67525000Y-25026000D03*
X70825000Y-25026000D03*
%TD*%
%TO.C,D67*%
X60381000Y-125038000D03*
X63681000Y-125038000D03*
%TD*%
D12*
%TO.C,SW65*%
X15826000Y-131538000D03*
D13*
X20906000Y-131538000D03*
D12*
X25986000Y-131538000D03*
D14*
X17096000Y-128998000D03*
X23446000Y-126458000D03*
%TD*%
D12*
%TO.C,SW29*%
X80120000Y-74388000D03*
D13*
X85200000Y-74388000D03*
D12*
X90280000Y-74388000D03*
D14*
X81390000Y-71848000D03*
X87740000Y-69308000D03*
%TD*%
D12*
%TO.C,SW48*%
X180133000Y-93438000D03*
D13*
X185213000Y-93438000D03*
D12*
X190293000Y-93438000D03*
D14*
X181403000Y-90898000D03*
X187753000Y-88358000D03*
%TD*%
D10*
%TO.C,D19*%
X143725000Y-48838000D03*
X147025000Y-48838000D03*
%TD*%
%TO.C,D63*%
X224688000Y-105988000D03*
X227988000Y-105988000D03*
%TD*%
%TO.C,D36*%
X210400000Y-67888000D03*
X213700000Y-67888000D03*
%TD*%
%TO.C,D7*%
X191350000Y-25026000D03*
X194650000Y-25026000D03*
%TD*%
D27*
%TO.C,ST3*%
X18493000Y-105503000D03*
D28*
X18493000Y-120713000D03*
D27*
X42369000Y-105503000D03*
D28*
X42369000Y-120713000D03*
%TD*%
D12*
%TO.C,SW21*%
X184895000Y-55338000D03*
D13*
X189975000Y-55338000D03*
D12*
X195055000Y-55338000D03*
D14*
X186165000Y-52798000D03*
X192515000Y-50258000D03*
%TD*%
D10*
%TO.C,D68*%
X131819000Y-125038000D03*
X135119000Y-125038000D03*
%TD*%
%TO.C,D59*%
X148488000Y-105988000D03*
X151788000Y-105988000D03*
%TD*%
D27*
%TO.C,ST1*%
X263762000Y-48353000D03*
D28*
X263762000Y-63563000D03*
D27*
X287638000Y-48353000D03*
D28*
X287638000Y-63563000D03*
%TD*%
D10*
%TO.C,D47*%
X158012000Y-86938000D03*
X161312000Y-86938000D03*
%TD*%
%TO.C,D9*%
X238975000Y-25026000D03*
X242275000Y-25026000D03*
%TD*%
D27*
%TO.C,ST4*%
X89969000Y-124553000D03*
D28*
X89969000Y-139763000D03*
D27*
X189969000Y-124553000D03*
D28*
X189969000Y-139763000D03*
%TD*%
D12*
%TO.C,SW52*%
X268239000Y-93438000D03*
D13*
X273319000Y-93438000D03*
D12*
X278399000Y-93438000D03*
D14*
X269509000Y-90898000D03*
X275859000Y-88358000D03*
%TD*%
D10*
%TO.C,D11*%
X277075000Y-25026000D03*
X280375000Y-25026000D03*
%TD*%
D14*
%TO.C,J3*%
X59000000Y-30500000D03*
X17000000Y-30500000D03*
D29*
X55100000Y-35700000D03*
X51300000Y-35700000D03*
X47500000Y-35700000D03*
X43700000Y-35700000D03*
X39900000Y-35700000D03*
X36100000Y-35700000D03*
X32300000Y-35700000D03*
X28500000Y-35700000D03*
X24700000Y-35700000D03*
X20900000Y-35700000D03*
%TD*%
D10*
%TO.C,D18*%
X124675000Y-48838000D03*
X127975000Y-48838000D03*
%TD*%
D12*
%TO.C,SW66*%
X39639000Y-131538000D03*
D13*
X44719000Y-131538000D03*
D12*
X49799000Y-131538000D03*
D14*
X40909000Y-128998000D03*
X47259000Y-126458000D03*
%TD*%
D10*
%TO.C,D72*%
X310413000Y-25026000D03*
X313713000Y-25026000D03*
%TD*%
%TO.C,D76*%
X310413000Y-67888000D03*
X313713000Y-67888000D03*
%TD*%
D12*
%TO.C,SW58*%
X132508000Y-112488000D03*
D13*
X137588000Y-112488000D03*
D12*
X142668000Y-112488000D03*
D14*
X133778000Y-109948000D03*
X140128000Y-107408000D03*
%TD*%
D10*
%TO.C,D35*%
X191350000Y-67888000D03*
X194650000Y-67888000D03*
%TD*%
%TO.C,D5*%
X153250000Y-25026000D03*
X156550000Y-25026000D03*
%TD*%
%TO.C,D8*%
X219925000Y-25026000D03*
X223225000Y-25026000D03*
%TD*%
D12*
%TO.C,SW75*%
X294432000Y-74388000D03*
D13*
X299512000Y-74388000D03*
D12*
X304592000Y-74388000D03*
D14*
X295702000Y-71848000D03*
X302052000Y-69308000D03*
%TD*%
D12*
%TO.C,SW72*%
X313483000Y-31526000D03*
D13*
X318563000Y-31526000D03*
D12*
X323643000Y-31526000D03*
D14*
X314753000Y-28986000D03*
X321103000Y-26446000D03*
%TD*%
D10*
%TO.C,D32*%
X134200000Y-67888000D03*
X137500000Y-67888000D03*
%TD*%
D12*
%TO.C,SW80*%
X275383000Y-131538000D03*
D13*
X280463000Y-131538000D03*
D12*
X285543000Y-131538000D03*
D14*
X276653000Y-128998000D03*
X283003000Y-126458000D03*
%TD*%
D12*
%TO.C,SW81*%
X294432000Y-131538000D03*
D13*
X299512000Y-131538000D03*
D12*
X304592000Y-131538000D03*
D14*
X295702000Y-128998000D03*
X302052000Y-126458000D03*
%TD*%
D12*
%TO.C,SW23*%
X222995000Y-55338000D03*
D13*
X228075000Y-55338000D03*
D12*
X233155000Y-55338000D03*
D14*
X224265000Y-52798000D03*
X230615000Y-50258000D03*
%TD*%
D12*
%TO.C,SW42*%
X65832000Y-93438000D03*
D13*
X70912000Y-93438000D03*
D12*
X75992000Y-93438000D03*
D14*
X67102000Y-90898000D03*
X73452000Y-88358000D03*
%TD*%
D10*
%TO.C,D3*%
X105625000Y-25026000D03*
X108925000Y-25026000D03*
%TD*%
%TO.C,D71*%
X250881000Y-125038000D03*
X254181000Y-125038000D03*
%TD*%
D12*
%TO.C,SW34*%
X175370000Y-74388000D03*
D13*
X180450000Y-74388000D03*
D12*
X185530000Y-74388000D03*
D14*
X176640000Y-71848000D03*
X182990000Y-69308000D03*
%TD*%
D10*
%TO.C,D66*%
X36569000Y-125038000D03*
X39869000Y-125038000D03*
%TD*%
D12*
%TO.C,SW4*%
X137270000Y-31526000D03*
D13*
X142350000Y-31526000D03*
D12*
X147430000Y-31526000D03*
D14*
X138540000Y-28986000D03*
X144890000Y-26446000D03*
%TD*%
D12*
%TO.C,SW62*%
X208707000Y-112488000D03*
D13*
X213787000Y-112488000D03*
D12*
X218867000Y-112488000D03*
D14*
X209977000Y-109948000D03*
X216327000Y-107408000D03*
%TD*%
D12*
%TO.C,SW73*%
X294432000Y-55338000D03*
D13*
X299512000Y-55338000D03*
D12*
X304592000Y-55338000D03*
D14*
X295702000Y-52798000D03*
X302052000Y-50258000D03*
%TD*%
D10*
%TO.C,D48*%
X177063000Y-86938000D03*
X180363000Y-86938000D03*
%TD*%
D12*
%TO.C,SW49*%
X199183000Y-93438000D03*
D13*
X204263000Y-93438000D03*
D12*
X209343000Y-93438000D03*
D14*
X200453000Y-90898000D03*
X206803000Y-88358000D03*
%TD*%
D11*
%TO.C,C2*%
X142300000Y-5563000D03*
X140700000Y-5563000D03*
%TD*%
D10*
%TO.C,D54*%
X53238000Y-105988000D03*
X56538000Y-105988000D03*
%TD*%
D12*
%TO.C,SW76*%
X313483000Y-74388000D03*
D13*
X318563000Y-74388000D03*
D12*
X323643000Y-74388000D03*
D14*
X314753000Y-71848000D03*
X321103000Y-69308000D03*
%TD*%
D10*
%TO.C,D44*%
X100863000Y-86938000D03*
X104163000Y-86938000D03*
%TD*%
D12*
%TO.C,SW47*%
X161082000Y-93438000D03*
D13*
X166162000Y-93438000D03*
D12*
X171242000Y-93438000D03*
D14*
X162352000Y-90898000D03*
X168702000Y-88358000D03*
%TD*%
D11*
%TO.C,R5*%
X125300000Y-12063000D03*
X123700000Y-12063000D03*
%TD*%
D12*
%TO.C,SW36*%
X213470000Y-74388000D03*
D13*
X218550000Y-74388000D03*
D12*
X223630000Y-74388000D03*
D14*
X214740000Y-71848000D03*
X221090000Y-69308000D03*
%TD*%
D10*
%TO.C,D23*%
X219925000Y-48838000D03*
X223225000Y-48838000D03*
%TD*%
%TO.C,D61*%
X186588000Y-105988000D03*
X189888000Y-105988000D03*
%TD*%
D12*
%TO.C,SW39*%
X275383000Y-74388000D03*
D13*
X280463000Y-74388000D03*
D12*
X285543000Y-74388000D03*
D14*
X276653000Y-71848000D03*
X283003000Y-69308000D03*
%TD*%
D12*
%TO.C,SW35*%
X194420000Y-74388000D03*
D13*
X199500000Y-74388000D03*
D12*
X204580000Y-74388000D03*
D14*
X195690000Y-71848000D03*
X202040000Y-69308000D03*
%TD*%
D10*
%TO.C,D27*%
X38950000Y-67888000D03*
X42250000Y-67888000D03*
%TD*%
%TO.C,D60*%
X167538000Y-105988000D03*
X170838000Y-105988000D03*
%TD*%
D12*
%TO.C,SW71*%
X253951000Y-131538000D03*
D13*
X259031000Y-131538000D03*
D12*
X264111000Y-131538000D03*
D14*
X255221000Y-128998000D03*
X261571000Y-126458000D03*
%TD*%
D12*
%TO.C,SW46*%
X142033000Y-93438000D03*
D13*
X147113000Y-93438000D03*
D12*
X152193000Y-93438000D03*
D14*
X143303000Y-90898000D03*
X149653000Y-88358000D03*
%TD*%
D10*
%TO.C,D69*%
X203256000Y-125038000D03*
X206556000Y-125038000D03*
%TD*%
D11*
%TO.C,F1*%
X117800000Y-12063000D03*
X116200000Y-12063000D03*
%TD*%
D10*
%TO.C,D4*%
X134200000Y-25026000D03*
X137500000Y-25026000D03*
%TD*%
%TO.C,D17*%
X105625000Y-48838000D03*
X108925000Y-48838000D03*
%TD*%
D12*
%TO.C,SW15*%
X70595000Y-55338000D03*
D13*
X75675000Y-55338000D03*
D12*
X80755000Y-55338000D03*
D14*
X71865000Y-52798000D03*
X78215000Y-50258000D03*
%TD*%
D10*
%TO.C,D34*%
X172300000Y-67888000D03*
X175600000Y-67888000D03*
%TD*%
D12*
%TO.C,SW79*%
X294432000Y-112488000D03*
D13*
X299512000Y-112488000D03*
D12*
X304592000Y-112488000D03*
D14*
X295702000Y-109948000D03*
X302052000Y-107408000D03*
%TD*%
D10*
%TO.C,D42*%
X62762000Y-86938000D03*
X66062000Y-86938000D03*
%TD*%
D12*
%TO.C,SW28*%
X61070000Y-74388000D03*
D13*
X66150000Y-74388000D03*
D12*
X71230000Y-74388000D03*
D14*
X62340000Y-71848000D03*
X68690000Y-69308000D03*
%TD*%
D12*
%TO.C,SW43*%
X84883000Y-93438000D03*
D13*
X89963000Y-93438000D03*
D12*
X95043000Y-93438000D03*
D14*
X86153000Y-90898000D03*
X92503000Y-88358000D03*
%TD*%
D10*
%TO.C,D38*%
X248500000Y-67888000D03*
X251800000Y-67888000D03*
%TD*%
%TO.C,D53*%
X22281000Y-105988000D03*
X25581000Y-105988000D03*
%TD*%
D11*
%TO.C,R6*%
X132300000Y-12063000D03*
X130700000Y-12063000D03*
%TD*%
D10*
%TO.C,D56*%
X91337000Y-105988000D03*
X94637000Y-105988000D03*
%TD*%
%TO.C,D49*%
X196113000Y-86938000D03*
X199413000Y-86938000D03*
%TD*%
D11*
%TO.C,R1*%
X180300000Y-3063000D03*
X178700000Y-3063000D03*
%TD*%
D10*
%TO.C,D43*%
X81813000Y-86938000D03*
X85113000Y-86938000D03*
%TD*%
D12*
%TO.C,SW32*%
X137270000Y-74388000D03*
D13*
X142350000Y-74388000D03*
D12*
X147430000Y-74388000D03*
D14*
X138540000Y-71848000D03*
X144890000Y-69308000D03*
%TD*%
D12*
%TO.C,SW19*%
X146795000Y-55338000D03*
D13*
X151875000Y-55338000D03*
D12*
X156955000Y-55338000D03*
D14*
X148065000Y-52798000D03*
X154415000Y-50258000D03*
%TD*%
D11*
%TO.C,R10*%
X110300000Y-12063000D03*
X108700000Y-12063000D03*
%TD*%
D10*
%TO.C,D39*%
X272313000Y-67888000D03*
X275613000Y-67888000D03*
%TD*%
%TO.C,D77*%
X291362000Y-86938000D03*
X294662000Y-86938000D03*
%TD*%
%TO.C,D30*%
X96100000Y-67888000D03*
X99400000Y-67888000D03*
%TD*%
D12*
%TO.C,SW11*%
X280145000Y-31526000D03*
D13*
X285225000Y-31526000D03*
D12*
X290305000Y-31526000D03*
D14*
X281415000Y-28986000D03*
X287765000Y-26446000D03*
%TD*%
D10*
%TO.C,D16*%
X86575000Y-48838000D03*
X89875000Y-48838000D03*
%TD*%
D12*
%TO.C,SW13*%
X32495000Y-55338000D03*
D13*
X37575000Y-55338000D03*
D12*
X42655000Y-55338000D03*
D14*
X33765000Y-52798000D03*
X40115000Y-50258000D03*
%TD*%
D12*
%TO.C,SW69*%
X206326000Y-131538000D03*
D13*
X211406000Y-131538000D03*
D12*
X216486000Y-131538000D03*
D14*
X207596000Y-128998000D03*
X213946000Y-126458000D03*
%TD*%
D12*
%TO.C,SW55*%
X75358000Y-112488000D03*
D13*
X80438000Y-112488000D03*
D12*
X85518000Y-112488000D03*
D14*
X76628000Y-109948000D03*
X82978000Y-107408000D03*
%TD*%
D10*
%TO.C,D79*%
X291362000Y-105988000D03*
X294662000Y-105988000D03*
%TD*%
D11*
%TO.C,C1*%
X153300000Y-5563000D03*
X151700000Y-5563000D03*
%TD*%
D10*
%TO.C,D73*%
X291362000Y-48838000D03*
X294662000Y-48838000D03*
%TD*%
D12*
%TO.C,SW50*%
X218233000Y-93438000D03*
D13*
X223313000Y-93438000D03*
D12*
X228393000Y-93438000D03*
D14*
X219503000Y-90898000D03*
X225853000Y-88358000D03*
%TD*%
D12*
%TO.C,SW7*%
X194420000Y-31526000D03*
D13*
X199500000Y-31526000D03*
D12*
X204580000Y-31526000D03*
D14*
X195690000Y-28986000D03*
X202040000Y-26446000D03*
%TD*%
D12*
%TO.C,SW20*%
X165845000Y-55338000D03*
D13*
X170925000Y-55338000D03*
D12*
X176005000Y-55338000D03*
D14*
X167115000Y-52798000D03*
X173465000Y-50258000D03*
%TD*%
D10*
%TO.C,D2*%
X86575000Y-25026000D03*
X89875000Y-25026000D03*
%TD*%
D11*
%TO.C,R3*%
X158300000Y-5063000D03*
X156700000Y-5063000D03*
%TD*%
D12*
%TO.C,SW54*%
X56308000Y-112488000D03*
D13*
X61388000Y-112488000D03*
D12*
X66468000Y-112488000D03*
D14*
X57578000Y-109948000D03*
X63928000Y-107408000D03*
%TD*%
D10*
%TO.C,D82*%
X310413000Y-125038000D03*
X313713000Y-125038000D03*
%TD*%
%TO.C,D51*%
X234213000Y-86938000D03*
X237513000Y-86938000D03*
%TD*%
%TO.C,D70*%
X227069000Y-125038000D03*
X230369000Y-125038000D03*
%TD*%
%TO.C,D78*%
X310413000Y-86938000D03*
X313713000Y-86938000D03*
%TD*%
%TO.C,D40*%
X17519000Y-86938000D03*
X20819000Y-86938000D03*
%TD*%
D12*
%TO.C,SW59*%
X151558000Y-112488000D03*
D13*
X156638000Y-112488000D03*
D12*
X161718000Y-112488000D03*
D14*
X152828000Y-109948000D03*
X159178000Y-107408000D03*
%TD*%
D12*
%TO.C,SW56*%
X94407000Y-112488000D03*
D13*
X99487000Y-112488000D03*
D12*
X104567000Y-112488000D03*
D14*
X95677000Y-109948000D03*
X102027000Y-107408000D03*
%TD*%
D10*
%TO.C,D74*%
X310413000Y-48838000D03*
X313713000Y-48838000D03*
%TD*%
D12*
%TO.C,SW70*%
X230139000Y-131538000D03*
D13*
X235219000Y-131538000D03*
D12*
X240299000Y-131538000D03*
D14*
X231409000Y-128998000D03*
X237759000Y-126458000D03*
%TD*%
D12*
%TO.C,SW63*%
X227758000Y-112488000D03*
D13*
X232838000Y-112488000D03*
D12*
X237918000Y-112488000D03*
D14*
X229028000Y-109948000D03*
X235378000Y-107408000D03*
%TD*%
D12*
%TO.C,SW77*%
X294432000Y-93438000D03*
D13*
X299512000Y-93438000D03*
D12*
X304592000Y-93438000D03*
D14*
X295702000Y-90898000D03*
X302052000Y-88358000D03*
%TD*%
D10*
%TO.C,D10*%
X258025000Y-25026000D03*
X261325000Y-25026000D03*
%TD*%
%TO.C,D15*%
X67525000Y-48838000D03*
X70825000Y-48838000D03*
%TD*%
D27*
%TO.C,ST2*%
X261381000Y-86453000D03*
D28*
X261381000Y-101663000D03*
D27*
X285257000Y-86453000D03*
D28*
X285257000Y-101663000D03*
%TD*%
D10*
%TO.C,D20*%
X162775000Y-48838000D03*
X166075000Y-48838000D03*
%TD*%
%TO.C,D81*%
X291362000Y-125038000D03*
X294662000Y-125038000D03*
%TD*%
D12*
%TO.C,SW24*%
X242045000Y-55338000D03*
D13*
X247125000Y-55338000D03*
D12*
X252205000Y-55338000D03*
D14*
X243315000Y-52798000D03*
X249665000Y-50258000D03*
%TD*%
D12*
%TO.C,SW40*%
X20589000Y-93438000D03*
D13*
X25669000Y-93438000D03*
D12*
X30749000Y-93438000D03*
D14*
X21859000Y-90898000D03*
X28209000Y-88358000D03*
%TD*%
D10*
%TO.C,D13*%
X29425000Y-48838000D03*
X32725000Y-48838000D03*
%TD*%
%TO.C,D62*%
X205637000Y-105988000D03*
X208937000Y-105988000D03*
%TD*%
%TO.C,D29*%
X77050000Y-67888000D03*
X80350000Y-67888000D03*
%TD*%
D12*
%TO.C,SW41*%
X46783000Y-93438000D03*
D13*
X51863000Y-93438000D03*
D12*
X56943000Y-93438000D03*
D14*
X48053000Y-90898000D03*
X54403000Y-88358000D03*
%TD*%
D10*
%TO.C,D64*%
X250881000Y-105988000D03*
X254181000Y-105988000D03*
%TD*%
%TO.C,D52*%
X265169000Y-86938000D03*
X268469000Y-86938000D03*
%TD*%
D12*
%TO.C,SW1*%
X70595000Y-31526000D03*
D13*
X75675000Y-31526000D03*
D12*
X80755000Y-31526000D03*
D14*
X71865000Y-28986000D03*
X78215000Y-26446000D03*
%TD*%
D10*
%TO.C,D57*%
X110388000Y-105988000D03*
X113688000Y-105988000D03*
%TD*%
%TO.C,D24*%
X238975000Y-48838000D03*
X242275000Y-48838000D03*
%TD*%
D12*
%TO.C,SW6*%
X175370000Y-31526000D03*
D13*
X180450000Y-31526000D03*
D12*
X185530000Y-31526000D03*
D14*
X176640000Y-28986000D03*
X182990000Y-26446000D03*
%TD*%
D10*
%TO.C,D41*%
X43713000Y-86938000D03*
X47013000Y-86938000D03*
%TD*%
D12*
%TO.C,SW14*%
X51545000Y-55338000D03*
D13*
X56625000Y-55338000D03*
D12*
X61705000Y-55338000D03*
D14*
X52815000Y-52798000D03*
X59165000Y-50258000D03*
%TD*%
D10*
%TO.C,D46*%
X138963000Y-86938000D03*
X142263000Y-86938000D03*
%TD*%
D12*
%TO.C,SW25*%
X270620000Y-55338000D03*
D13*
X275700000Y-55338000D03*
D12*
X280780000Y-55338000D03*
D14*
X271890000Y-52798000D03*
X278240000Y-50258000D03*
%TD*%
D12*
%TO.C,SW45*%
X122983000Y-93438000D03*
D13*
X128063000Y-93438000D03*
D12*
X133143000Y-93438000D03*
D14*
X124253000Y-90898000D03*
X130603000Y-88358000D03*
%TD*%
M02*
